<?xml version="1.0" encoding="iso-8859-1"?>
<!-- Generator: Adobe Illustrator 16.0.0, SVG Export Plug-In . SVG Version: 6.00 Build 0)  -->
<!DOCTYPE svg PUBLIC "-//W3C//DTD SVG 1.1//EN" "http://www.w3.org/Graphics/SVG/1.1/DTD/svg11.dtd">
<svg version="1.1" id="Capa_1" xmlns="http://www.w3.org/2000/svg" xmlns:xlink="http://www.w3.org/1999/xlink" x="0px" y="0px"
	 width="31.936px" height="31.936px" viewBox="0 0 31.936 31.936" style="enable-background:new 0 0 31.936 31.936;"
	 xml:space="preserve">
<g>
	<g>
		<path d="M8.32,6.471c-1.565,0-2.833,1.268-2.833,2.833v19.797c0,1.564,1.268,2.834,2.833,2.834h15.294
			c1.564,0,2.834-1.27,2.834-2.834V9.304c0-1.565-1.268-2.833-2.834-2.833H8.32z M23.214,25.928c0,0.908-0.738,1.646-1.646,1.646
			H10.368c-0.909,0-1.645-0.737-1.645-1.646V12.62c0-0.91,0.736-1.646,1.645-1.646h11.198c0.909,0,1.646,0.737,1.646,1.646v13.308
			H23.214z"/>
		<path d="M12.298,21.823l0.644-1.234v2.853c0,0.348,0.217,0.666,0.526,0.82c0.554,0.271,1.554,0.635,2.912,0.635
			c1.218,0,2.116-0.293,2.673-0.551c0.393-0.181,0.643-0.572,0.643-1v-2.757l0.035,0.063l0.611,1.141
			c1.02-0.92,1.646-2.186,1.646-3.584c0-2.808-2.542-5.086-5.677-5.086c-3.137,0-5.688,2.278-5.688,5.086
			C10.626,19.623,11.259,20.902,12.298,21.823z M17.022,18.827c0-0.175,0.154-0.257,0.33-0.257h2.027
			c0.176,0,0.315,0.082,0.315,0.257v0.001c0,0.878-0.604,1.594-1.339,1.594C17.624,20.422,17.022,19.705,17.022,18.827
			L17.022,18.827z M16.315,20.301c0.098,0,0.191,0.041,0.257,0.114l0.797,0.897l-0.387,0.342L16.54,21.43
			c-0.138-0.072-0.301-0.07-0.438,0.002l-0.421,0.221l-0.391-0.338l0.771-0.896C16.126,20.344,16.217,20.301,16.315,20.301z
			 M13.085,18.827c0-0.175,0.116-0.257,0.291-0.257h2.029c0.176,0,0.351,0.082,0.351,0.258l0,0c0,0.878-0.602,1.594-1.337,1.594
			C13.686,20.422,13.084,19.705,13.085,18.827L13.085,18.827L13.085,18.827z"/>
		<path d="M20.964,1.646c0-0.91-0.738-1.646-1.646-1.646h-6.698c-0.909,0-1.645,0.737-1.645,1.646v3.841h9.99V1.646L20.964,1.646z"
			/>
	</g>
</g>
<g>
</g>
<g>
</g>
<g>
</g>
<g>
</g>
<g>
</g>
<g>
</g>
<g>
</g>
<g>
</g>
<g>
</g>
<g>
</g>
<g>
</g>
<g>
</g>
<g>
</g>
<g>
</g>
<g>
</g>
</svg>
