<?xml version="1.0" encoding="iso-8859-1"?>
<!-- Generator: Adobe Illustrator 16.0.0, SVG Export Plug-In . SVG Version: 6.00 Build 0)  -->
<!DOCTYPE svg PUBLIC "-//W3C//DTD SVG 1.1//EN" "http://www.w3.org/Graphics/SVG/1.1/DTD/svg11.dtd">
<svg version="1.1" id="Capa_1" xmlns="http://www.w3.org/2000/svg" xmlns:xlink="http://www.w3.org/1999/xlink" x="0px" y="0px"
	 width="28.968px" height="28.968px" viewBox="0 0 28.968 28.968" style="enable-background:new 0 0 28.968 28.968;"
	 xml:space="preserve">
<g>
	<g>
		<polygon points="24.571,16.893 17.616,15.893 14.888,19.161 12.071,15.893 4.548,16.893 4.021,28.968 24.947,28.968 		"/>
		<path d="M14.761,14.782c4.082,0,7.391-3.31,7.391-7.392c0-4.08-3.309-7.39-7.391-7.39s-7.39,3.31-7.39,7.391
			S10.679,14.782,14.761,14.782z M15.823,11.662h-2.43V9.348h2.43V11.662z M11.804,5.019c0.125-0.354,0.317-0.671,0.573-0.952
			c0.257-0.281,0.587-0.509,0.987-0.684c0.401-0.174,0.89-0.263,1.466-0.263c0.569,0,1.048,0.078,1.438,0.229
			c0.392,0.153,0.705,0.346,0.946,0.583c0.242,0.237,0.418,0.5,0.531,0.783c0.112,0.286,0.176,0.555,0.192,0.813
			c0,0.358-0.047,0.647-0.142,0.869c-0.094,0.223-0.215,0.408-0.367,0.557c-0.15,0.148-0.321,0.269-0.508,0.367
			c-0.188,0.099-0.379,0.196-0.572,0.297C16.216,7.69,16.107,7.76,16.021,7.83c-0.085,0.069-0.151,0.145-0.199,0.221
			c-0.046,0.078-0.079,0.166-0.099,0.27c-0.02,0.101-0.029,0.217-0.029,0.349h-2.16c-0.008-0.116-0.013-0.264-0.013-0.443
			c0-0.187,0.023-0.379,0.07-0.573c0.047-0.193,0.13-0.385,0.246-0.572c0.116-0.188,0.287-0.343,0.513-0.468
			c0.094-0.047,0.203-0.096,0.328-0.151c0.124-0.055,0.242-0.117,0.357-0.182c0.11-0.067,0.207-0.146,0.284-0.241
			c0.078-0.092,0.117-0.204,0.117-0.336c0-0.398-0.226-0.596-0.678-0.596c-0.28,0-0.479,0.1-0.596,0.302
			C14.047,5.614,14,5.842,14.024,6.1h-2.441C11.605,5.733,11.68,5.375,11.804,5.019z"/>
	</g>
</g>
<g>
</g>
<g>
</g>
<g>
</g>
<g>
</g>
<g>
</g>
<g>
</g>
<g>
</g>
<g>
</g>
<g>
</g>
<g>
</g>
<g>
</g>
<g>
</g>
<g>
</g>
<g>
</g>
<g>
</g>
</svg>
