<?xml version="1.0" encoding="iso-8859-1"?>
<!-- Generator: Adobe Illustrator 16.0.0, SVG Export Plug-In . SVG Version: 6.00 Build 0)  -->
<!DOCTYPE svg PUBLIC "-//W3C//DTD SVG 1.1//EN" "http://www.w3.org/Graphics/SVG/1.1/DTD/svg11.dtd">
<svg version="1.1" id="Capa_1" xmlns="http://www.w3.org/2000/svg" xmlns:xlink="http://www.w3.org/1999/xlink" x="0px" y="0px"
	 width="233.269px" height="233.268px" viewBox="0 0 233.269 233.268" style="enable-background:new 0 0 233.269 233.268;"
	 xml:space="preserve">
<g>
	<g>
		<path d="M149.667,107.641V81.33h6.606c5.067,0,9.177-4.107,9.177-9.174c0-5.068-4.107-9.177-9.177-9.177h-6.606h-39.576h-26.49
			h-6.607c-5.067,0-9.176,4.108-9.176,9.177c0,5.067,4.108,9.174,9.176,9.174h6.607v26.311
			c-20.906,11.831-34.118,34.171-34.118,58.478c0,37.028,30.124,67.149,67.151,67.149s67.151-30.123,67.151-67.149
			C183.785,141.812,170.573,119.472,149.667,107.641z M99.223,180.021c-3.726,0-6.747-3.021-6.747-6.747
			c0-3.728,3.021-6.748,6.747-6.748c3.727,0,6.747,3.021,6.747,6.748C105.97,177,102.949,180.021,99.223,180.021z M124.921,172.526
			c-1.654,0-2.998-1.344-2.998-2.999c0-1.656,1.344-3,2.998-3c1.657,0,3,1.344,3,3C127.921,171.181,126.578,172.526,124.921,172.526
			z M135.911,191.435c-3.725,0-6.746-3.021-6.746-6.746c0-3.727,3.021-6.748,6.746-6.748c3.729,0,6.748,3.021,6.748,6.748
			C142.659,188.414,139.64,191.435,135.911,191.435z M163.248,152.896c-5.536,0-10.51,2.405-13.938,6.227
			c-2.237-7.832-9.443-13.567-17.994-13.567c-6.693,0-12.562,3.517-15.872,8.798c-2.229-0.938-4.681-1.458-7.252-1.458
			c-3.713,0-7.17,1.086-10.08,2.95c-3.084-6.103-9.407-10.291-16.713-10.291c-3.813,0-7.358,1.145-10.316,3.102
			c4.534-11.797,13.563-21.646,25.475-27.031l5.396-2.439V81.33h29.363v37.855l5.396,2.439c13.314,6.02,23.026,17.617,26.885,31.279
			C163.48,152.903,163.364,152.896,163.248,152.896z"/>
		<g>
			<path d="M114.767,37.152c-0.653-1.082-1.451-2.071-2.223-3.028c-0.221-0.273-0.441-0.545-0.656-0.818
				c-1.578-2.002-2.621-3.876-3.187-5.73c-1.225-4.006-0.547-8.637,2.131-14.574c1.854-4.111,4.203-7.97,6.449-11.568
				c0.212-0.34,0.185-0.776-0.067-1.087c-0.253-0.312-0.675-0.427-1.05-0.29c-3.795,1.387-7.797,4.282-11.269,8.151
				c-3.696,4.119-5.985,8.776-6.799,13.843c-0.818,5.094,0.586,10.644,3.853,15.227c0.913,1.282,1.989,2.395,3.029,3.471
				c0.693,0.715,1.408,1.456,2.05,2.223c1.466,1.75,2.479,3.215,3.283,4.745c2.118,4.029,0.508,8.731-1.705,11.789
				c-0.234,0.321-0.238,0.756-0.012,1.083c0.179,0.256,0.469,0.403,0.771,0.403c0.083,0,0.167-0.011,0.249-0.033
				c4.438-1.22,8.18-5.807,8.706-10.67c0.31-2.865,0.002-5.515-0.914-7.876C116.752,40.726,115.912,39.055,114.767,37.152z"/>
		</g>
		<path d="M133.042,37.071c-0.339-0.874-0.771-1.737-1.363-2.722c-0.355-0.587-0.785-1.118-1.203-1.638l-0.271-0.338
			c-0.691-0.878-1.145-1.685-1.383-2.468c-0.521-1.708-0.206-3.742,0.995-6.403c0.88-1.95,2.004-3.797,3.081-5.522
			c0.33-0.527,0.289-1.207-0.104-1.69c-0.388-0.477-1.066-0.658-1.633-0.451c-2.002,0.732-4.096,2.24-5.896,4.246
			c-1.934,2.154-3.131,4.597-3.559,7.26c-0.439,2.742,0.309,5.717,2.051,8.164c0.488,0.687,1.041,1.256,1.573,1.808
			c0.321,0.332,0.653,0.674,0.952,1.031c0.667,0.796,1.124,1.455,1.482,2.137c0.82,1.56,0.146,3.449-0.754,4.695
			c-0.365,0.499-0.373,1.177-0.018,1.69c0.271,0.39,0.721,0.623,1.195,0.623c0.128,0,0.256-0.017,0.386-0.052
			c2.579-0.709,4.671-3.258,4.976-6.06C133.718,39.822,133.548,38.372,133.042,37.071z"/>
	</g>
</g>
</svg>
