<?xml version="1.0" encoding="iso-8859-1"?>
<!-- Generator: Adobe Illustrator 16.0.0, SVG Export Plug-In . SVG Version: 6.00 Build 0)  -->
<!DOCTYPE svg PUBLIC "-//W3C//DTD SVG 1.1//EN" "http://www.w3.org/Graphics/SVG/1.1/DTD/svg11.dtd">
<svg version="1.1" id="Capa_1" xmlns="http://www.w3.org/2000/svg" xmlns:xlink="http://www.w3.org/1999/xlink" x="0px" y="0px"
	 width="69.705px" height="69.705px" viewBox="0 0 69.705 69.705" style="enable-background:new 0 0 69.705 69.705;"
	 xml:space="preserve">
<g>
	<g>
		<rect x="27.765" y="44.591" width="0.073" height="0.221"/>
		<path d="M59.011,15.904c-3.453,0-7.012,1.436-10.196,4.085c-3.188-2.649-6.752-4.085-10.2-4.085
			c-6.301,0-10.702,4.853-10.702,11.802c0,2.705,1.087,5.487,2.682,8.178c1.217-1.469,2.246-2.905,2.971-4.253
			c-0.616-1.362-0.985-2.686-0.985-3.927c0-4.398,2.311-7.13,6.03-7.13c2.77,0,5.881,1.538,8.54,4.224l1.661,1.676l1.655-1.676
			c2.665-2.684,5.776-4.224,8.543-4.224c3.721,0,6.031,2.732,6.031,7.13c0,6.797-10.703,16.211-16.229,20.354
			c-2.553-1.911-6.185-4.959-9.383-8.34c-0.919,1.277-1.913,2.519-2.966,3.7c4.775,4.968,9.969,8.714,11.002,9.439l1.337,0.935
			l1.342-0.935c1.998-1.401,19.562-14.002,19.562-25.154C69.714,20.757,65.316,15.904,59.011,15.904z"/>
		<path d="M38.614,22.911c-1.041,0-1.776,0.336-2.318,0.825c0.537,1.085,0.836,2.421,0.836,3.972c0,6.798-10.7,16.212-16.231,20.354
			C15.37,43.92,4.671,34.506,4.671,27.708c0-4.397,2.31-7.13,6.031-7.13c2.771,0,5.882,1.539,8.539,4.226l1.659,1.674l1.658-1.674
			c1.297-1.308,2.691-2.324,4.111-3.04c0.953-2.42,2.488-4.431,4.466-5.853c-0.012,0-0.024-0.002-0.035-0.002
			c-3.455,0-7.012,1.436-10.201,4.085c-3.188-2.649-6.75-4.085-10.198-4.085C4.402,15.908,0,20.761,0,27.71
			c0,11.15,17.561,23.755,19.562,25.156l1.338,0.936l1.339-0.936c2.001-1.4,19.563-14.006,19.563-25.156
			c0-1.521-0.239-2.922-0.647-4.204C40.274,23.152,39.41,22.911,38.614,22.911z"/>
	</g>
</g>
<g>
</g>
<g>
</g>
<g>
</g>
<g>
</g>
<g>
</g>
<g>
</g>
<g>
</g>
<g>
</g>
<g>
</g>
<g>
</g>
<g>
</g>
<g>
</g>
<g>
</g>
<g>
</g>
<g>
</g>
</svg>
