<?xml version="1.0" standalone="no"?>
<!DOCTYPE svg PUBLIC "-//W3C//DTD SVG 1.1//EN" "http://www.w3.org/Graphics/SVG/1.1/DTD/svg11.dtd" >
<svg xmlns="http://www.w3.org/2000/svg">
<metadata>Generated by IcoMoon</metadata>
<defs>
<font id="Werewolves" horiz-adv-x="1024">
<font-face units-per-em="1024" ascent="960" descent="-64" />
<missing-glyph horiz-adv-x="1024" />
<glyph unicode="&#x20;" d="" horiz-adv-x="512" />
<glyph unicode="&#xe600;" d="M868.569 353.7l-245.855 35.349-96.433-115.522-99.579 115.522-265.933-35.349-18.629-426.843h739.721zM521.792 428.323c144.296 0 261.267 117.006 261.267 261.302 0 144.225-116.971 261.232-261.267 261.232s-261.232-117.006-261.232-261.267 116.936-261.267 261.232-261.267zM559.333 538.613h-85.899v81.798h85.899v-81.798zM417.264 773.439c4.419 12.514 11.206 23.719 20.255 33.653 9.085 9.933 20.75 17.993 34.89 24.179 14.175 6.151 31.461 9.297 51.822 9.297 20.114 0 37.046-2.757 50.832-8.095 13.857-5.408 24.921-12.231 33.44-20.609 8.555-8.378 14.776-17.675 18.771-27.679 3.959-10.11 6.221-19.619 6.787-28.739 0-12.655-1.661-22.871-5.020-30.719-3.323-7.883-7.6-14.423-12.973-19.69-5.302-5.232-11.347-9.509-17.957-12.973-6.646-3.5-13.397-6.928-20.22-10.499-4.666-2.545-8.519-5.020-11.559-7.494-3.005-2.439-5.338-5.126-7.035-7.812-1.626-2.757-2.793-5.868-3.5-9.544-0.707-3.57-1.025-7.671-1.025-12.337h-76.355c-0.283 4.101-0.46 9.332-0.46 15.66 0 6.61 0.813 13.397 2.474 20.255 1.661 6.822 4.595 13.61 8.696 20.22 4.101 6.646 10.145 12.125 18.134 16.543 3.323 1.661 7.176 3.394 11.595 5.338 4.383 1.944 8.555 4.136 12.62 6.434 3.888 2.368 7.317 5.161 10.039 8.519 2.757 3.252 4.136 7.211 4.136 11.877 0 14.069-7.989 21.068-23.967 21.068-9.898 0-16.932-3.535-21.068-10.676-4.065-7.211-5.727-15.271-4.878-24.391h-86.288c0.778 12.973 3.429 25.628 7.812 38.213z" />
<glyph unicode="&#xe601;" d="M1019.206 452.631l-62.944 78.995c-12.962 14.34-32.178 23.421-53.618 23.421-39.038 0-70.688-30.112-70.688-67.247 0-19.288 8.537-36.679 22.213-48.943v-0.003c-13.676-12.264-22.213-29.652-22.213-48.94 0-37.139 31.65-67.244 70.688-67.244 21.436 0 40.655 9.084 53.614 23.421h0.003c0 0 62.799 78.816 62.966 79.023 2.976 3.787 4.769 8.553 4.769 13.743 0.003 5.206-1.796 9.984-4.791 13.774zM793.746 464.024h-63.538c-13.107 237.976-210.834 427.569-452.029 427.569-71.607 0-129.861-58.257-129.861-129.864s58.254-129.864 129.861-129.864c62.242 0 114.401 44.018 126.979 102.555 109.959-47.097 184.399-150.756 193.613-270.4h-166.905v161.469c0 13.897-11.267 25.164-25.164 25.164s-25.164-11.267-25.164-25.164v-161.466h-143.402l-38.12 77.196c-4.241 8.584-12.984 14.022-22.562 14.022h-137.394c-8.7 0-16.781-4.495-21.373-11.88-4.591-7.389-5.039-16.625-1.189-24.425l27.117-54.914h-19.452c-13.897 0-25.164-11.267-25.164-25.164s11.267-25.164 25.164-25.164h19.455l-27.117-54.914c-3.853-7.801-3.403-17.036 1.189-24.425s12.673-11.88 21.373-11.88h137.394c9.578 0 18.322 5.439 22.562 14.022l38.12 77.196h143.402v-161.466c0-13.897 11.267-25.164 25.164-25.164s25.164 11.267 25.164 25.164v161.466h166.908c-9.204-119.754-83.644-223.426-193.613-270.422-12.569 58.55-64.731 102.574-126.982 102.574-71.607 0-129.861-58.254-129.861-129.864s58.254-129.864 129.861-129.864c241.197 0 438.925 189.596 452.029 427.576h63.538c13.897 0 25.164 11.267 25.164 25.164-0.003 13.897-11.27 25.164-25.167 25.164zM80.552 504.915h81.263l20.194-40.891h-81.266l-20.191 40.891zM161.815 372.805h-81.263l20.191 40.891h81.266l-20.194-40.891zM576.551 660.748c-46.459 62.346-112.649 109.528-186.375 132.852-7.971 2.529-16.668 0.918-23.214-4.262-6.552-5.187-10.1-13.29-9.471-21.622 0.151-1.963 0.223-3.976 0.223-5.983 0-43.854-35.682-79.535-79.539-79.535-43.854 0-79.533 35.682-79.533 79.535s35.679 79.535 79.533 79.535c213.436 0 388.562-167.034 401.6-377.245h-30.596c-4.737 71.358-29.564 138.926-72.629 196.724zM278.179 36.448c-43.854 0-79.533 35.682-79.533 79.535s35.679 79.537 79.533 79.537c43.857 0 79.539-35.682 79.539-79.537 0-1.997-0.072-4.010-0.22-5.989-0.343-4.621 0.594-9.251 2.711-13.371 5.602-10.915 18.263-16.193 29.951-12.506 74.859 23.61 139.332 69.527 186.447 132.783 43.039 57.779 67.841 125.372 72.575 196.793h30.593c-13.032-210.205-188.162-377.245-401.597-377.245z" />
<glyph unicode="&#xe602;" d="M512 953.392c-144.521-122.877-240.199-142.37-390.898-142.37 0 0 0-292.039 0-480.885 0-197.322 142.362-248.847 390.898-405.813 248.536 156.965 390.898 208.49 390.898 405.813 0 188.846 0 480.885 0 480.885-150.696 0-246.376 19.496-390.898 142.37zM267.389 207.612c-27.837 28.889-46.376 60.781-46.376 122.522v103.519h290.987v392.685c101.828-73.295 189.039-101.835 290.987-111.239v-281.445h-290.987v-391.676c-110.536 67.857-197.218 116.454-244.611 165.635z" />
<glyph unicode="&#xe603;" d="M657.008 478.334v115.5h28.999c22.243 0 40.285 18.029 40.285 40.272 0 22.248-18.029 40.285-40.285 40.285h-348.019c-22.243 0-40.281-18.033-40.281-40.285 0-22.243 18.033-40.272 40.281-40.272h29.003v-115.5c-91.773-51.936-149.771-150.004-149.771-256.707 0-162.546 132.238-294.771 294.779-294.771s294.779 132.234 294.779 294.771c0 106.703-57.998 204.771-149.771 256.707zM435.569 160.601c-16.356 0-29.618 13.262-29.618 29.618 0 16.365 13.262 29.622 29.618 29.622 16.361 0 29.618-13.262 29.618-29.622 0-16.356-13.262-29.618-29.618-29.618zM548.378 193.502c-7.261 0-13.161 5.9-13.161 13.165 0 7.27 5.9 13.169 13.161 13.169 7.274 0 13.169-5.9 13.169-13.169 0-7.261-5.896-13.165-13.169-13.165zM596.622 110.496c-16.352 0-29.614 13.262-29.614 29.614 0 16.361 13.262 29.622 29.614 29.622 16.37 0 29.622-13.262 29.622-29.622 0-16.352-13.253-29.614-29.622-29.614zM716.626 279.674c-24.302 0-46.137-10.557-61.185-27.335-9.82 34.381-41.453 59.556-78.99 59.556-29.381 0-55.145-15.439-69.675-38.621-9.785 4.118-20.549 6.4-31.835 6.4-16.299 0-31.475-4.767-44.249-12.95-13.538 26.791-41.295 45.175-73.367 45.175-16.738 0-32.3-5.026-45.285-13.617 19.903 51.786 59.539 95.022 111.83 118.661l23.687 10.707v166.185h128.898v-166.176l23.687-10.707c58.446-26.427 101.080-77.335 118.020-137.309-0.518 0-1.027 0.031-1.536 0.031zM503.804 787.767c-2.867 4.75-6.37 9.091-9.759 13.292-0.97 1.198-1.936 2.392-2.88 3.591-6.927 8.788-11.506 17.015-13.99 25.154-5.378 17.586-2.401 37.915 9.355 63.977 8.139 18.046 18.45 34.987 28.31 50.781 0.931 1.493 0.812 3.406-0.294 4.772-1.111 1.37-2.963 1.874-4.609 1.273-16.659-6.089-34.227-18.797-49.469-35.781-16.225-18.082-26.273-38.525-29.846-60.768-3.591-22.362 2.572-46.725 16.914-66.843 4.008-5.628 8.731-10.514 13.297-15.237 3.042-3.139 6.181-6.392 8.999-9.759 6.435-7.682 10.882-14.113 14.412-20.83 9.298-17.687 2.23-38.327-7.485-51.751-1.027-1.409-1.045-3.319-0.053-4.754 0.786-1.124 2.059-1.769 3.385-1.769 0.364 0 0.733 0.048 1.093 0.145 19.482 5.356 35.909 25.492 38.218 46.839 1.361 12.577 0.009 24.21-4.012 34.574-2.871 7.406-6.558 14.741-11.585 23.095zM584.028 788.123c-1.488 3.837-3.385 7.625-5.983 11.949-1.558 2.577-3.446 4.908-5.281 7.19l-1.19 1.484c-3.033 3.854-5.026 7.397-6.071 10.834-2.287 7.498-0.904 16.427 4.368 28.108 3.863 8.56 8.797 16.668 13.525 24.24 1.449 2.313 1.269 5.298-0.457 7.419-1.703 2.094-4.68 2.888-7.169 1.98-8.788-3.213-17.981-9.833-25.882-18.639-8.49-9.456-13.744-20.18-15.623-31.87-1.927-12.037 1.356-25.096 9.003-35.838 2.142-3.016 4.57-5.514 6.905-7.937 1.409-1.457 2.867-2.959 4.179-4.526 2.928-3.494 4.934-6.387 6.506-9.381 3.6-6.848 0.641-15.14-3.31-20.61-1.602-2.191-1.637-5.167-0.079-7.419 1.19-1.712 3.165-2.735 5.246-2.735 0.562 0 1.124 0.075 1.694 0.228 11.321 3.112 20.505 14.302 21.844 26.602 0.742 6.844-0.004 13.209-2.226 18.92z" />
<glyph unicode="&#xe604;" d="M512.020 564.051c-65.372 0-118.15-52.756-118.15-118.13 0-65.392 52.756-118.17 118.15-118.17s118.15 52.756 118.15 118.17c0 65.372-52.778 118.13-118.15 118.13zM512.020 359.907c-47.044 0-85.996 38.952-85.996 86.036 0 47.044 38.952 85.996 85.996 85.996 47.002 0 86.036-38.954 86.036-85.996 0-47.084-39.034-86.036-86.036-86.036zM828.6 553.729c-84.91 72.274-190.382 107.808-316.58 107.808-125.030 0-230.584-35.512-316.56-107.808-34.448-29.838-64.288-66.52-89.558-107.808 25.272-42.476 55.112-78.090 89.558-107.806 85.974-72.274 191.528-107.89 316.56-107.89 126.198 0 231.69 35.594 316.58 107.89 35.534 29.716 65.394 65.312 89.476 107.808-24.084 41.288-53.944 77.966-89.476 107.808zM512.020 245.179c-110.162 0-200.746 90.604-200.746 200.764 0 110.12 90.582 199.598 200.746 199.598s200.704-89.478 200.704-199.598c0-110.162-90.542-200.764-200.704-200.764zM511.98 919.175c-265.276 0-480.276-215.040-480.276-480.358 0-265.196 214.998-480.276 480.276-480.276 265.258 0 480.318 215.082 480.318 480.276 0 265.318-215.060 480.358-480.318 480.358zM881.336 315.137c-98.592-88.33-222.514-131.87-369.316-131.87-145.716 0-269.536 43.562-369.398 131.87-40.12 35.552-75.654 79.196-104.306 130.806 28.632 50.402 64.184 94.044 104.306 130.764 99.86 88.33 223.682 131.912 369.398 131.912 146.8 0 270.726-43.602 369.316-131.912 41.35-36.722 75.756-80.364 104.386-130.764-28.63-51.61-63.038-95.252-104.386-130.806z" />
<glyph unicode="&#xe605;" d="M923.627 488.811c-22.675 189.197-172.5 338.999-361.672 361.672v102.907h-99.911v-102.907c-189.197-22.675-338.999-172.5-361.67-361.672h-102.909v-99.911h102.907c22.675-189.197 172.5-338.999 361.672-361.672v-102.907h99.911v102.907c189.194 22.675 338.999 172.5 361.67 361.672h102.909v99.911h-102.907zM822.783 488.986h-85.349c-19.383 87.225-88.23 156.026-175.482 175.341v85.411c130.457-20.938 238.647-123.203 260.828-260.751zM512 282.861c-86.152 0-155.999 69.841-155.999 155.996s69.845 155.996 155.999 155.996c86.154 0 155.999-69.841 155.999-155.996s-69.843-155.996-155.999-155.996zM462.038 749.671c0.002 0 0.004 0 0.006 0v-85.346c-87.251-19.316-156.099-88.117-175.482-175.341h-85.417c21.011 130.435 123.321 238.573 260.892 260.686zM201.186 388.899c-0.008 0.059-0.014 0.119-0.029 0.178h85.331c19.278-87.386 88.192-156.348 175.558-175.687v-85.409c-130.513 20.949-238.738 123.289-260.859 260.919zM561.958 128.043c-0.002 0-0.002 0-0.004 0v85.343c87.366 19.339 156.279 88.302 175.558 175.687h85.393c-20.886-130.587-123.252-238.897-260.946-261.030zM574.443 438.857c0-34.487-27.956-62.443-62.443-62.443s-62.443 27.956-62.443 62.443 27.956 62.443 62.443 62.443 62.443-27.956 62.443-62.443z" />
<glyph unicode="&#xe606;" d="M956.96 630.139c-17.419 85.624-6.298 264.912-302.788 312.19-296.411 47.324-563.524-103.089-496.335-431.828 0-59.92-118.644-152.935-90.057-184.379 28.585-31.444 77.094-32.672 77.094-32.672s-31.534-59.92-17.352-76.467c14.17-16.549 53.599-9.469 53.599-9.469s-36.636-26.399-36.636-46.878c0-20.502 61.861-47.725 61.861-47.725s-11.345-113.384 81.55-105.522c92.891 7.859 108.536 34.1 108.536 34.1l27.56-114.633h359.534l-12.64 249.145c-0.002-0.023 220.782 239.674 186.076 454.137zM817.068 495.226l-100.228-22.4-44.489 40.020 15.744 40.020h128.973v-57.64zM812.423 841.384l74.147-78.567-74.147-62.264h-41.494v40.022l23.717 30.373-2.949 50.762 20.726 19.674zM770.929 876.984l-4.422-110.211-38.526-57.82-25.259 9.402 3.351 66.439-64.854 20.279 55.609 83.861 74.101-11.949zM520.221 801.007l1.117 91.587 95.628-0.803 45.023-20.011-28.896-45.604-23.717-33.701 71.129-22.266v-45.939l-14.807-41.471-91.943-5.94v16.279l-17.262 7.415-16.828-51.99-45.034-17.71-60.969 43.749 25.94 45.962 37.072-12.596 6.286 22.243-19.619 14.828 13.533 25.951 76.882-25.951 22.981 10.385-76.515 45.583zM348.426 767.285c4.445 0 90.447 0 90.447 0l-71.163 31.109 21.495 37.072 105.422 40.959v-63.94l-72.079-0.96 48.921-29.434-45.971-88.931h-85.982c0.021-0.021 4.454 74.124 8.91 74.124zM341.48 674.604h63.001l81.525-56.033-51.889-20.724-92.637 76.757zM459.621 543.42v50.407l29.658 16.302 74.133-31.132 45.916-14.828 5.94 23.002-59.271 22.958 4.422 40.022 88.973-2.949 78.567 45.939 78.567-23.717 83.034 60.79 44.487-75.619-106.752-7.392-17.777-45.962 48.909-5.917-34.102 16.302 7.415 23.717 95.361 3.148-7.528-82.899-88.036-0.492-39.842 34.28-56.368-21.506-43.906 1.673 38.011 36.135-85.245 3.886 30.396-37.989-26.687-59.294h-142.315l-45.96 31.134zM685.014 401.83l-80.286 83.771c10.406 0 56.345 13.355 56.345 13.355l68.407-76.356-44.466-20.77z" />
<glyph unicode="&#xe607;" d="M851.664 557.016l-178.222 283.37v-147.091c-3.025 5.555-161.408 257.562-161.408 257.562s-158.383-252.007-161.392-257.579v147.108l-178.255-283.37c-4.679-7.407-45.812-75.273-45.812-161.392l5.753-131.732c6.183-33.346 16.913-66.627 30.255-96.881 8.399-18.963 20.501-35.479 34.851-49.433-9.391-32.387-5.059-65.321 14.714-98.816 36.107-60.972 83.573-91.905 141.007-91.905 31.263 0 57.831 9.539 81.291 17.954 23.443 8.399 43.679 15.64 70.578 15.64 27.262 0 48.986-7.572 71.983-15.64 23.543-8.233 50.16-17.541 81.076-17.541v0c58.294 0 105.644 31.362 140.594 92.996 18.103 31.743 23.543 62.824 17.277 93.062 16.88 16.45 30.404 36.669 38.769 59.733 12.978 35.826 20.583 66.99 24.816 94.732l17.839 127.797c0.050 86.152-41.051 154.002-45.713 161.425zM585.24 653.12c0 0 30.999-49.201 30.999-110.008l-30.999 8.266v101.742zM584.347 519.355c67.106 1.025 75.505-105.214 68.677-142.478-6.233-34.322-33.793-77.241-68.677-77.241-34.867 0-63.237 28.37-63.237 63.287s-3.803 155.39 63.237 156.432zM438.81 653.12v-102.866l-30.982-7.142c0 60.824 30.982 110.008 30.982 110.008zM427.039 519.355c72.727 6.712 63.221-121.581 63.221-156.515 0-34.867-28.304-63.27-63.221-63.27-34.9 0-49.085 31.445-63.237 63.27-17.392 38.934-9.473 149.802 63.237 156.515zM254.107 505.616v-99.692l-30.966-10.3c0.033 60.791 30.966 109.992 30.966 109.992zM250.85 206.11c-14.053 31.925-51.549 144.743-5.307 168.699 46.143 23.972 106.966-85.689 120.969-117.58 14.135-31.875-0.298-69.321-32.206-83.391-31.974-14.119-69.272 0.364-83.457 32.272zM714.823 68.029c-52.425-92.517-93.906-11.011-209.75-11.011s-154.514-82.432-209.833 11.011c-28.932 48.837 66.775 87.044 97.493 115.778 38.472 35.892 47.912 101.13 112.29 101.13 61.353 0 74.48-64.18 112.868-97.658 34.123-29.693 128.045-64.659 96.931-119.25zM764.040 206.044c-11.953-32.801-48.226-49.78-80.994-37.827-32.834 11.92-63.882 58.724-52.012 91.525 5.274 14.334 38.918 16.483 58.294 41.414 24.816 31.792 38.472 84.614 68.792 73.455 54.194-19.757 17.806-135.832 5.919-168.567zM769.959 405.924v99.692c0 0 30.966-49.201 30.966-109.992l-30.966 10.3z" />
<glyph unicode="&#xe608;" d="M450.533 401.944c0 23.942-19.489 43.43-43.398 43.43-23.974 0-43.43-19.489-43.43-43.43 0-23.877 19.424-43.43 43.43-43.43 23.909 0 43.398 19.553 43.398 43.43zM694.53 401.977c0-23.968-19.43-43.398-43.398-43.398s-43.398 19.43-43.398 43.398c0 23.968 19.43 43.398 43.398 43.398s43.398-19.43 43.398-43.398zM528.94 227.417c51.4 0 94.217 35.815 107.834 81.569h-215.57c13.52-45.753 56.434-81.569 107.737-81.569zM1023.968 790.559c-107.737 115.997-216.506 10.938-259.323-41.139-67.598 52.4-152.296 83.634-244.158 83.634-96.67 0-185.402-34.525-254.516-91.926-37.171 47.754-152.232 171.979-265.97 49.432 0 0 37.719-132.324 203.632-114.255-51.626-67.275-82.311-151.296-82.311-242.48 0-220.055 179.077-399.101 399.165-399.101s399.133 179.045 399.133 399.101c0 90.507-30.266 174.076-81.182 241.093 150.586-7.002 185.531 115.642 185.531 115.642zM520.486 132.005c-166.429 0-301.85 135.421-301.85 301.818 0 22.070 2.388 43.559 6.905 64.274h192.823l-0.774 81.246 83.053-81.246h314.918c4.485-20.747 6.905-42.236 6.905-64.274-0.097-166.397-135.518-301.818-301.979-301.818z" />
<glyph unicode="&#xe609;" d="M512.001 353.488c279.866 0 335.877 117.447 335.451 117.591-40.572 492.714-286.746 215.307-335.451 215.307-48.708 0-294.879 277.405-335.453-215.307-0.422-0.146 55.589-117.591 335.453-117.591zM902.583 448.883c-18.708-37.792-57.362-71.583-113.29-98.16-74.551-35.422-173.023-54.925-277.29-54.925-104.265 0-202.742 19.503-277.288 54.925-55.928 26.577-94.586 60.366-113.294 98.16-75.727-35.51-121.421-81.471-121.421-131.684 0.002-112.495 229.229-203.686 512.001-203.686s511.999 91.193 511.999 203.686c0 50.211-45.69 96.179-121.417 131.684z" />
<glyph unicode="&#xe60a;" d="M1022.699 556.015c0.878 8.784 1.334 17.731 1.334 26.744 0 147.838-119.826 267.729-267.696 267.729-108.829 0-202.497-65.037-244.336-158.314-41.84 93.31-135.507 158.314-244.336 158.314-147.838 0-267.664-119.891-267.664-267.729 0-9.012 0.455-17.959 1.301-26.744 0 0 5.238-263.597 513.985-528.788v0c508.681 265.191 507.413 528.788 507.413 528.788zM275.277 791.502c24.303 0 43.955-19.651 43.955-43.922s-19.651-43.922-43.955-43.922-43.857 19.618-43.857 43.922c-0.033 24.238 19.586 43.922 43.857 43.922zM137.98 462.868c-4.099-1.139-8.264-1.692-12.298-1.692-20.074 0-38.489 13.307-44.117 33.543-6.897 24.564-10.151 47.143-10.997 67.705-4.099 108.243 62.597 161.47 65.915 164.105 20.041 15.487 48.835 11.843 64.256-8.166 15.421-19.814 11.94-48.151-7.45-63.768-2.375-1.985-31.298-27.98-31.103-83.614 0.098-14.999 2.245-32.144 7.613-51.633 6.8-24.434-7.483-49.681-31.819-56.48z" />
<glyph unicode="&#xe60b;" d="M407.881 295.794h1.072v-3.247h-1.072v3.247zM866.9 717.22c-50.726 0-103.010-21.096-149.784-60.011-46.833 38.915-99.19 60.011-149.843 60.011-92.565 0-157.218-71.293-157.218-173.377 0-39.738 15.969-80.607 39.4-120.139 17.878 21.58 32.995 42.676 43.645 62.479-9.049 20.008-14.47 39.459-14.47 57.69 0 64.609 33.95 104.743 88.584 104.743 40.693 0 86.395-22.594 125.457-62.053l24.401-24.621 24.313 24.621c39.15 39.429 84.852 62.053 125.501 62.053 54.663 0 88.598-40.134 88.598-104.743 0-99.851-157.232-238.147-238.412-299.010-37.505 28.074-90.861 72.85-137.841 122.519-13.501-18.76-28.103-37.005-43.572-54.355 70.147-72.982 146.449-128.013 161.625-138.663l19.641-13.736 19.715 13.736c29.352 20.581 287.375 205.696 287.375 369.524 0.118 102.040-64.491 173.333-157.115 173.333zM567.258 614.283c-15.293 0-26.090-4.936-34.053-12.12 7.889-15.939 12.281-35.566 12.281-58.351 0-99.866-157.188-238.162-238.441-299.010-81.253 60.848-238.427 199.144-238.427 299.010 0 64.594 33.935 104.743 88.598 104.743 40.707 0 86.409-22.609 125.442-62.082l24.372-24.592 24.357 24.592c19.054 19.215 39.532 34.141 60.393 44.659 14 35.551 36.55 65.094 65.608 85.983-0.176 0-0.353 0.029-0.514 0.029-50.756 0-103.010-21.096-149.858-60.011-46.833 38.915-99.161 60.011-149.814 60.011-92.535 0.015-157.203-71.278-157.203-173.362 0-163.799 257.98-348.972 287.375-369.554l19.656-13.75 19.671 13.75c29.396 20.567 287.39 205.755 287.39 369.554 0 22.344-3.511 42.926-9.505 61.759-12.942 5.2-25.635 8.741-37.329 8.741z" />
<glyph unicode="&#xe60c;" d="M512 826.34c101.828-73.295 189.039-101.835 290.987-111.239v-384.964c0-61.741-18.54-93.629-46.376-122.522-47.392-49.182-134.082-97.784-244.611-165.633-110.536 67.857-197.218 116.452-244.611 165.633-27.837 28.889-46.376 60.781-46.376 122.522v384.964c101.947 9.403 189.16 37.944 290.987 111.239zM512 953.392c-144.521-122.877-240.199-142.37-390.898-142.37 0 0 0-292.039 0-480.885 0-197.322 142.362-248.847 390.898-405.813 248.536 156.965 390.898 208.49 390.898 405.813 0 188.846 0 480.885 0 480.885-150.696 0-246.376 19.496-390.898 142.37z" />
<glyph unicode="&#xe60d;" d="M512 826.34c101.828-73.295 189.039-101.835 290.987-111.239v-384.964c0-61.741-18.54-93.629-46.376-122.522-47.392-49.182-134.082-97.784-244.611-165.633-110.536 67.857-197.218 116.452-244.611 165.633-27.837 28.889-46.376 60.781-46.376 122.522v384.964c101.947 9.403 189.16 37.944 290.987 111.239zM512 953.392c-144.521-122.877-240.199-142.37-390.898-142.37 0 0 0-292.039 0-480.885 0-197.322 142.362-248.847 390.898-405.813 248.536 156.965 390.898 208.49 390.898 405.813 0 188.846 0 480.885 0 480.885-150.696 0-246.376 19.496-390.898 142.37zM465.106 645.236h93.799v-284.454h-93.799v284.454zM512 217.487c-27.949 0-50.614 22.657-50.614 50.609s22.662 50.616 50.614 50.616c27.951 0 50.614-22.662 50.614-50.616 0-27.951-22.662-50.609-50.614-50.609z" />
<glyph unicode="&#xe60e;" d="M512 826.34c101.828-73.295 189.039-101.835 290.987-111.239v-384.964c0-61.741-18.54-93.629-46.376-122.522-47.392-49.182-134.082-97.784-244.611-165.633-110.536 67.857-197.218 116.452-244.611 165.633-27.837 28.889-46.376 60.781-46.376 122.522v384.964c101.947 9.403 189.16 37.944 290.987 111.239zM512 953.392c-144.521-122.877-240.199-142.37-390.898-142.37 0 0 0-292.039 0-480.885 0-197.322 142.362-248.847 390.898-405.813 248.536 156.965 390.898 208.49 390.898 405.813 0 188.846 0 480.885 0 480.885-150.696 0-246.376 19.496-390.898 142.37zM461.21 270.015l-155.080 155.125 66.031 66.043 89.045-89.074 205.587 205.587 66.061-66.022-271.647-271.659z" />
<glyph unicode="&#xe60f;" d="M758.085 726.98h-492.106c-30.146 0-54.571-24.425-54.571-54.571v-690.916c0-30.275 24.425-54.636 54.571-54.636h492.106c30.082 0 54.507 24.361 54.507 54.636v690.916c-0.064 30.146-24.425 54.571-54.507 54.571zM701.328 254.864h-140.381v-140.381h-97.894v140.381h-140.317v97.894h140.317v140.317h97.894v-140.317h140.381c0 0 0-97.894 0-97.894zM399.868 774.416h224.199c32.46 0 58.814 26.289 58.814 58.814v58.814c0 32.46-26.354 58.814-58.814 58.814h-224.199c-32.46 0-58.814-26.354-58.814-58.814v-58.878c0.064-32.46 26.354-58.749 58.814-58.749z" />
<glyph unicode="&#xe610;" d="M266.774 743.37c-50.18 0-90.838-40.657-90.838-90.838v-634.774c0-50.148 40.657-90.87 90.838-90.87h490.389c50.148 0 90.87 40.721 90.87 90.87v634.774c0 50.18-40.657 90.838-90.87 90.838h-490.389zM744.337 119.498c0-29.114-23.663-52.778-52.778-52.778h-359.118c-29.146 0-52.745 23.631-52.745 52.778v426.709c0 29.178 23.599 52.778 52.745 52.778h359.054c29.146 0 52.778-23.631 52.778-52.778v-426.709h0.064zM394.325 251.122l20.649 39.567v-91.479c0-11.158 6.958-21.355 16.866-26.293 17.764-8.689 49.828-20.361 93.371-20.361 39.054 0 67.848 9.395 85.707 17.667 12.601 5.804 20.617 18.341 20.617 32.064v88.401l1.122-2.020 19.591-36.585c32.705 29.499 52.778 70.092 52.778 114.918 0 90.036-81.507 163.078-182.028 163.078-100.585 0-182.381-73.042-182.381-163.078 0.096-45.339 20.393-86.349 53.707-115.88zM545.796 347.186c0 5.611 4.938 8.24 10.581 8.24h64.994c5.643 0 10.1-2.629 10.1-8.24v-0.032c0-28.152-19.367-51.11-42.934-51.11-23.439 0-42.741 22.99-42.741 51.142v0zM523.126 299.923c3.142 0 6.124-1.315 8.24-3.655l25.555-28.762-12.409-10.966-14.172 7.182c-4.425 2.309-9.651 2.244-14.044-0.064l-13.499-7.086-12.537 10.838 24.721 28.729c2.084 2.405 5.002 3.784 8.144 3.784zM419.559 347.186c0 5.611 3.719 8.24 9.331 8.24h65.058c5.643 0 11.255-2.629 11.255-8.273v0c0-28.152-19.303-51.11-42.87-51.11-23.503 0-42.806 22.99-42.774 51.142v0 0zM672.192 898.079c0 29.178-23.663 52.778-52.778 52.778h-214.766c-29.146 0-52.745-23.631-52.745-52.778v-123.158h320.321v123.158h-0.032z" />
<glyph unicode="&#xe611;" d="M902.497 241.74c162.002 162.005 161.999 425.609 0 587.614-162.005 162.005-425.609 162.005-587.611 0-137.439-137.439-158.255-341.847-62.498-501.467 0 0 6.878-11.532-2.411-20.822-52.991-52.991-211.985-211.988-211.985-211.988-42.194-42.191-52.242-101.189-14.825-138.614l6.442-6.436c37.421-37.424 96.423-27.383 138.614 14.811 0 0 158.657 158.66 211.546 211.543 9.731 9.735 21.267 2.857 21.267 2.857 159.614-95.75 364.021-74.938 501.46 62.502zM391.602 318.452c-119.705 119.705-119.702 314.477 0 434.182 119.705 119.702 314.477 119.705 434.179 0 119.705-119.702 119.705-314.477 0-434.182-119.705-119.702-314.477-119.702-434.179 0zM609.966 678.94c-125.419 0-227.090-125.089-227.090-145.525 0-19.832 101.668-145.521 227.090-145.521 125.419 0 227.090 125.122 227.090 145.521 0 20.367-101.668 145.525-227.090 145.525zM609.966 429.848c-57.204 0-103.571 46.374-103.571 103.571s46.371 103.571 103.571 103.571c57.2 0 103.568-46.371 103.568-103.571s-46.367-103.571-103.568-103.571zM662.727 533.416c0-29.139-23.622-52.76-52.76-52.76s-52.76 23.622-52.76 52.76c0 29.139 23.622 52.76 52.76 52.76s52.76-23.622 52.76-52.76z" />
<glyph unicode="&#xe612;" d="M512.066 950.857c-282.792 0-511.978-229.274-511.978-511.978 0-282.836 229.186-512.022 511.934-512.022 282.836 0 511.934 229.274 511.934 512.022 0 282.704-229.186 511.978-511.89 511.978zM556.005 11.703v110.77h-88.098v-110.77c-205.547 21.047-367.858 187.093-383.544 394.133h177.162v88.186h-175.009c25.221 196.759 183.226 351.776 381.435 372.032v-78.695h88.098v78.651c198.429-20.256 356.258-175.273 381.479-372.032h-174.965v-88.186h177.25c-15.95-207.041-178.261-373.175-383.808-394.090zM511.934 495.033c71.445 0 129.093 57.648 129.093 128.829 0 71.269-57.648 129.005-129.093 129.005-71.049 0-128.654-57.648-128.654-129.005-0.044-71.137 57.56-128.829 128.654-128.829zM615.279 474.074h-206.558c-36.909 0-67.139-33.877-67.139-75.487v-207.524c0-2.241 1.098-4.394 1.23-6.679h338.287c0.22 2.373 1.274 4.526 1.274 6.679v207.524c0.044 41.566-30.098 75.487-67.095 75.487z" />
<glyph unicode="&#xe613;" d="M383.836 362.901l109.595-73.346c-26.401-205.097-260.743-362.698-260.743-362.698l-86.334 80.562 237.483 355.482zM877.648 950.857l-1.655-24.788c-28.608-431.672-251.617-637.363-253.91-639.443l-6.070-5.475-210.36 140.495 273.435 381.756c15.323 24.024 68.55 104.459 97.582 110.231 7.64 1.486 14.559-1.188 18.888-7.386 0.722-0.891 2.504-3.481 10.611-1.868 17.742 3.523 43.804 23.133 52.378 30.391l19.101 16.087zM844.116 898.479c-10.696-6.537-22.836-12.649-33.872-14.814-17.063-3.438-26.274 3.438-30.688 8.871-15.068-5.518-54.203-55.816-82.981-100.978l-261.168-364.48 178.356-119.102c20.713 20.968 92.956 100.766 153.526 242.237l-1.146 1.74c0 0 39.814 151.276-7.386 163.416-47.2 12.097-40.536 140.622 13.922 110.274 42.403-23.685 63.838 42.361 71.436 72.837zM364.82 389.514l173.22-115.622 21.817 32.598-173.263 115.664-21.775-32.641zM792.035 502.886c0 0-19.992-43.549-15.917-63.966 4.075-20.331 19.737-34.508 34.89-31.452 15.238 3.056 24.279 22.072 20.247 42.403-4.032 20.416-39.22 53.015-39.22 53.015zM818.691 562.395c0 0-6.791-14.983-5.475-21.944 1.401-7.004 6.706-11.8 11.97-10.781 5.221 1.019 8.319 7.513 6.961 14.516s-13.455 18.209-13.455 18.209z" />
<glyph unicode="&#xe614;" d="M205.561 389.513c5.88-19.18 11.958-39.016 14.992-58.994 1.24-8.142 6.102-67.365 8.731-99.902 1.007-12.467 10.461-22.602 22.828-24.472l43.204-6.532c6.229-0.942 11.197-5.692 12.41-11.875l5.692-29.115c2.475-12.654 13.566-21.782 26.46-21.775l335.044 0.199c12.669 0.008 23.622 8.84 26.313 21.22l6.519 29.975c1.439 5.916 6.328 10.362 12.353 11.239l52.6 7.64c12.639 1.836 22.254 12.288 23.022 25.038 2.018 33.477 5.784 94.426 6.952 102.776 2.766 19.717 8.585 39.206 14.205 58.167 7.879 26.532 16.026 53.919 16.026 82.402 0.010 181.892-144.568 329.842-322.272 329.842s-322.281-148.030-322.281-329.962c0.002-29.753 8.746-58.284 17.202-85.87zM552.634 406.298c2.043 51.663 48.372 64.654 100.036 62.613 51.663-2.043 89.096-18.347 87.053-70.010s-45.58-91.889-97.243-89.846c-51.663 2.043-91.889 45.58-89.846 97.243zM522.238 304.92l33.534-49.659c2.975-4.404 3.382-10.058 1.069-14.843l-4.81-9.957c-2.491-5.155-7.712-8.43-13.436-8.43h-57.448c-5.726 0-10.946 3.276-13.436 8.43l-4.81 9.957c-2.312 4.785-1.904 10.437 1.069 14.843l33.534 49.659c5.916 8.763 18.817 8.763 24.733 0zM368.605 468.909c51.663 2.043 97.993-10.948 100.036-62.613 2.043-51.663-38.182-95.2-89.846-97.243s-95.2 38.182-97.243 89.846c-2.043 51.665 35.39 67.969 87.053 70.010zM930.886 852.789c4.019 24.68-3.495 50.874-22.587 69.868-30.663 30.509-80.689 31.065-111.986 1.206-32.724-31.22-33.186-83.068-1.385-114.869l-29.231-29.231c-11.679-11.681-11.679-30.618 0-42.299l49.865-49.865c11.679-11.681 30.618-11.681 42.297 0l29.231 29.231c31.803-31.803 83.65-31.339 114.869 1.385 29.858 31.297 29.301 81.324-1.208 111.986-18.993 19.091-45.185 26.606-69.865 22.587zM136.908 716.833l29.231-29.231c11.681-11.681 30.618-11.681 42.297 0l49.865 49.865c11.681 11.681 11.681 30.618 0 42.299l-29.231 29.231c31.803 31.801 31.339 83.648-1.385 114.869-31.297 29.857-81.323 29.301-111.986-1.208-19.090-18.994-26.604-45.188-22.585-69.868-24.68 4.019-50.872-3.495-69.868-22.585-30.509-30.661-31.066-80.689-1.208-111.986 31.22-32.724 83.068-33.186 114.87-1.385zM1001.962 159.496c-31.22 32.726-83.068 33.186-114.869 1.385l-29.231 29.231c-11.681 11.681-30.618 11.681-42.297 0l-49.865-49.865c-11.679-11.681-11.679-30.618 0-42.299l29.231-29.231c-31.803-31.803-31.339-83.65 1.385-114.869 31.297-29.858 81.324-29.303 111.986 1.206 19.091 18.994 26.606 45.188 22.587 69.868 24.68-4.019 50.872 3.495 69.866 22.587 30.508 30.663 31.063 80.689 1.206 111.986zM93.114 24.925c-4.019-24.68 3.495-50.874 22.587-69.868 30.663-30.509 80.689-31.065 111.986-1.206 32.724 31.22 33.186 83.068 1.385 114.869l29.231 29.231c11.681 11.679 11.681 30.618 0 42.299l-49.865 49.865c-11.681 11.681-30.618 11.681-42.297 0l-29.231-29.231c-31.803 31.803-83.65 31.341-114.869-1.385-29.858-31.297-29.303-81.323 1.206-111.986 18.994-19.091 45.187-26.606 69.866-22.587z" />
<glyph unicode="&#xe615;" d="M512-75.678c-57.53 46.599-74.518 58.81-186.882 87.389-156.279 39.749-245.912 142.859-245.912 282.876 0 78.296 31.471 150.393 67.921 249.419 41.065 111.553 17.771 146.946-25.47 191.973l-36.79 38.302 210.792 178.364c20.866-21.338 50.221-60.503 103.978-60.503 52.917 0 88.759 38.074 112.87 59.166 21.784-19.656 57.332-59.166 111.85-59.166 53.027 0 81.372 37.382 104.724 61.247 46.204-40.935 4.059-4.818 210.040-179.111l-36.79-38.302c-43.241-45.027-66.536-80.416-25.47-191.973 36.462-99.058 67.921-171.142 67.921-249.419 0-140.017-89.627-243.125-245.906-282.876-112.383-28.579-129.355-40.79-186.887-87.386zM227.78 764.555c44.273-61.81 57.545-133.849 12.948-255.006-34.496-93.713-61.783-156.579-61.783-214.967 0-118.006 92.861-166.401 170.758-186.218 76.022-19.334 122.639-31.193 162.3-55.532 39.661 24.342 86.279 36.194 162.302 55.532 77.894 19.818 170.754 68.211 170.754 186.218 0 58.367-27.259 121.198-61.779 214.963-44.602 121.157-31.324 193.197 12.948 255.008l-67.195 56.856c-24.818-14.426-60.765-29.001-104.667-29.001-46.941 0-86.386 16.735-112.363 31.775-25.972-15.038-65.425-31.775-112.357-31.775-43.911 0-79.851 14.578-104.672 29.001l-67.197-56.856zM635.537 272.987l-121.741 64.002-121.751-64.002 23.257 135.569-98.496 96.014 136.113 19.777 60.877 123.346 60.877-123.346 136.117-19.777-98.5-96.014 23.246-135.569z" />
<glyph unicode="&#xe616;" d="M1017.235 537.825l-49.189 70.226c-0.303-0.212-0.589-0.447-0.888-0.654-55.679-39.016-132.441-25.483-171.447 30.201-39.006 55.674-25.48 132.441 30.206 171.443 0.303 0.212 0.612 0.398 0.915 0.606l-49.187 70.216c-11.846 16.918-35.174 21.024-52.094 9.178l-194.552-136.283 42.581-60.793-46.164-32.311-42.568 60.778-468.894-328.46c-16.928-11.836-21.039-35.166-9.178-52.084l239.59-342.038c11.846-16.918 35.176-21.024 52.082-9.167l468.891 328.442-42.049 60.036 46.16 32.33 42.043-60.041 194.564 136.288c16.903 11.858 21.024 35.177 9.178 52.089zM560.246 615.001l46.159 32.325 55.259-78.87-46.18-32.335-55.238 78.88zM695.506 419.685l-50.968 72.749 46.16 32.325 50.961-72.749-46.154-32.325z" />
<glyph unicode="&#xe617;" d="M951.237 692.527c-51.215-51.215-113.806-30.719-165.071 20.496-51.165 51.215-71.711 113.806-20.446 165.021l-72.814 72.814-147.281-147.331 19.845-19.895-21.799-21.799-19.895 19.895-523.776-523.726 72.814-72.864c51.215 51.215 113.756 30.819 164.971-20.396s71.711-113.806 20.496-165.021l72.864-72.864 104.184 104.184c-0.050 1.052-0.251 2.105-0.251 3.157 0.301 12.227 5.562 23.904 14.533 32.072 34.628 31.872 67.652 63.342 88.499 84.339-20.997 21.198-54.422 53.069-88.499 84.339-8.97 8.168-14.232 19.895-14.483 32.022-0.251 12.227 4.56 24.054 13.129 32.573l68.905 69.055c8.269 8.269 19.794 13.079 31.571 13.079 12.779-0.2 24.455-5.312 32.673-14.082 31.671-33.776 63.292-66.499 84.59-87.747 21.348 21.298 53.069 54.071 84.59 87.747 8.218 8.77 19.845 13.881 31.922 14.082h0.050c1.052 0 1.954-0.2 3.057-0.301l69.256 69.306-5.713 5.663 21.849 21.849 5.663-5.713 147.331 147.331-72.763 72.713zM630.967 674.536l-43.648 43.648 21.799 21.849 43.698-43.648-21.849-21.849zM718.263 587.24l-43.648 43.648 21.849 21.849 43.648-43.698-21.849-21.799zM805.509 499.944l-43.598 43.648 21.849 21.799 43.598-43.648-21.849-21.799zM862.136 258.402c3.157 3.007 5.061 7.166 5.162 11.476 0.050 4.41-1.654 8.619-4.761 11.676l-69.055 69.005c-3.107 3.157-7.316 4.811-11.626 4.761-4.36-0.050-8.519-1.854-11.476-5.111-40.942-43.648-87.046-91.055-105.487-107.993-18.492 16.938-64.495 64.345-105.437 107.993-3.007 3.207-7.166 5.061-11.476 5.111s-8.569-1.604-11.626-4.761l-68.955-69.055c-3.107-3.057-4.811-7.316-4.711-11.676s2.005-8.569 5.212-11.476c44.45-40.842 92.909-87.446 108.594-105.437-15.685-17.99-64.194-64.545-108.594-105.387-3.207-3.007-5.162-7.166-5.212-11.526s1.604-8.619 4.761-11.726l68.955-68.855c3.107-3.157 7.316-4.61 11.676-4.761 4.36 0.1 8.519 1.954 11.476 5.162 40.942 43.899 87.196 91.706 105.487 108.193 18.241-16.487 64.495-64.294 105.437-108.193 2.957-3.157 7.116-5.061 11.476-5.162 0.050 0 0.15 0 0.251 0 4.26 0 8.319 1.704 11.426 4.711l69.055 68.905c3.107 3.107 4.811 7.316 4.761 11.676-0.1 4.41-1.954 8.519-5.162 11.526-43.899 40.842-91.756 87.096-108.343 105.437 16.387 18.291 64.244 64.595 108.193 105.487z" />
<glyph unicode="&#xe618;" d="M981.81 638.208c-27.024 63.123-63.242 117.507-108.66 163.13-45.39 45.628-99.672 81.962-162.802 108.984-63.107 27.022-129.24 40.535-198.34 40.535-69.107 0-135.228-13.52-198.356-40.535-63.13-27.022-117.4-63.349-162.804-108.984-45.407-45.623-81.629-100.007-108.651-163.13-27.020-63.128-40.533-129.472-40.533-199.017 0-69.547 13.513-135.999 40.533-199.343 27.029-63.361 63.242-117.833 108.651-163.472 45.404-45.63 99.674-81.966 162.804-108.967 63.128-27.034 129.247-40.549 198.356-40.549s135.233 13.516 198.34 40.549c63.13 27.015 117.411 63.337 162.802 108.967 45.418 45.639 81.634 100.114 108.66 163.472 27.024 63.347 40.526 129.798 40.526 199.343-0.009 69.545-13.502 135.889-40.526 199.017zM209.654 240.518c-39.427 60.668-59.141 126.922-59.132 198.682 0 65.558 16.174 126.249 48.511 182.071 32.331 55.817 76.197 99.893 131.565 132.242 55.373 32.338 115.843 48.502 181.41 48.502 73.108 0 139.536-20.158 199.352-60.47l-501.707-501.027zM844.901 297.976c-19.055-44.962-44.732-83.619-77.069-115.961-32.352-32.34-70.776-58.145-115.3-77.398-44.524-19.264-91.374-28.912-140.537-28.912-70.876 0-136.662 19.704-197.355 59.148l501.041 500.371c38.557-59.362 57.81-124.708 57.81-196.026-0.012-49.179-9.538-96.245-28.588-141.221z" />
<glyph unicode="&#xe619;" d="M850.552 950.857c-57.531 0-104.171-46.643-104.171-104.173 0-10.8 1.644-21.211 4.693-31-78.942-32.978-149.587-83.106-212.497-142.207 28.853-10.774 49.403-38.578 49.403-71.187 0-41.96-34.017-75.976-75.976-75.976-30.661 0-57.062 18.175-69.070 44.328-15.042-18.299-29.526-36.94-43.449-55.765-68.913-93.338-127.109-194.475-176.857-299.195-22.579-47.529-43.466-95.899-62.153-145.097-7.618-20.059-15.86-44.571-22.66-67.745h-68.535v-75.981h781.275v75.981h-80.102c-47.309 131.868-63.923 285.503-62.084 422.698 1.58 117.774 23.572 235.679 81.328 336.631 17.126-12.352 38.133-19.649 60.854-19.649 57.531 0 104.171 46.637 104.171 104.168 0.003 57.531-46.635 104.171-104.168 104.171zM379.373 43.858c-41.96 0-75.976 34.014-75.976 75.976 0 41.957 34.017 75.976 75.976 75.976s75.976-34.019 75.976-75.976c0-41.965-34.014-75.976-75.976-75.976zM626.3 230.003c-41.96 0-75.979 34.014-75.979 75.976 0 41.957 34.019 75.976 75.979 75.976 41.962 0 75.976-34.019 75.976-75.976 0-41.965-34.014-75.976-75.976-75.976z" />
<glyph unicode="&#xe61a;" d="M316.988 362.547l70.301 39.861-12.385 44.818c-106.65 10.108-190.079 99.932-190.022 209.241 0.060 116.356 93.734 209.98 210.091 209.98 38.845 0 75.224-10.543 106.439-28.925 10.695-6.298 21.874 7.484 13.535 16.675-54.172 59.7-132.504 97.069-219.564 96.656-161.754-0.768-293.267-133.105-293.071-294.862 0.197-162.48 131.974-294.136 294.5-294.136 6.783 0 13.508 0.239 20.177 0.691zM725.638 557.167l-48.267 85.126c-4.163 7.344-11.535 11.015-18.907 11.015s-14.744-3.673-18.907-11.015l-48.267-85.126c21.822 5.48 44.29 8.254 67.172 8.254 22.884 0.002 45.354-2.774 67.176-8.254zM591.291 22.998l48.267-85.126c4.163-7.344 11.535-11.015 18.907-11.015s14.744 3.673 18.907 11.015l48.267 85.126c-21.822-5.48-44.29-8.254-67.172-8.254-22.888 0-45.356 2.774-67.176 8.254zM306.253 308.988c-14.686-8.328-14.686-29.487 0-37.813l85.128-48.267c-5.48 21.822-8.254 44.29-8.254 67.174s2.774 45.35 8.254 67.172l-85.128-48.267zM1010.676 308.988l-85.128 48.267c5.48-21.822 8.254-44.29 8.254-67.172 0-22.884-2.774-45.352-8.254-67.174l85.128 48.267c14.686 8.328 14.686 29.487 0 37.813zM900.036 553.312c-1.921 0-3.895-0.259-5.89-0.81l-94.35-26.072c19.344-11.577 37.209-25.501 53.362-41.654 16.155-16.153 30.079-34.018 41.654-53.362l26.072 94.35c3.945 14.279-7.091 27.548-20.848 27.548zM416.892 26.853c1.921 0 3.897 0.259 5.89 0.81l94.35 26.072c-19.344 11.575-37.209 25.501-53.362 41.654-16.153 16.155-30.077 34.018-41.654 53.362l-26.072-94.35c-3.945-14.277 7.089-27.548 20.848-27.548zM416.892 553.312c-13.757 0-24.794-13.268-20.848-27.548l26.070-94.349c3.793 6.338 7.836 12.521 12.132 18.534 8.813 12.335 18.663 23.967 29.524 34.828 16.155 16.155 34.018 30.077 53.362 41.654l-94.35 26.072c-1.993 0.549-3.969 0.808-5.89 0.808zM900.036 26.853c13.757 0 24.794 13.27 20.848 27.548l-26.072 94.35c-11.575-19.344-25.501-37.209-41.654-53.362-16.153-16.155-34.016-30.077-53.362-41.654l94.35-26.072c1.994-0.552 3.969-0.81 5.89-0.81zM557.647 504.95c-4.031-1.896-8.005-3.889-11.907-6-3.703-2.003-7.344-4.103-10.924-6.293-10.091-6.172-19.679-13.083-28.702-20.647-10.703-8.973-20.602-18.872-29.576-29.576-7.563-9.024-14.473-18.611-20.647-28.702-1.665-2.722-3.269-5.486-4.826-8.279-2.649-4.752-5.14-9.604-7.464-14.552-3.080-6.554-5.876-13.267-8.358-20.132-2.928-8.102-5.421-16.409-7.468-24.892-2.732-11.334-4.648-22.985-5.687-34.888-0.602-6.89-0.927-13.861-0.927-20.907 0-7.048 0.325-14.016 0.927-20.907 1.039-11.903 2.957-23.554 5.687-34.888 2.045-8.485 4.538-16.792 7.468-24.892 2.481-6.865 5.277-13.578 8.358-20.132 3.691-7.854 7.792-15.475 12.291-22.829 6.172-10.091 13.083-19.68 20.647-28.702 8.973-10.703 18.872-20.604 29.576-29.576 9.024-7.563 18.611-14.473 28.702-20.647 7.355-4.499 14.977-8.6 22.831-12.291 6.552-3.080 13.265-5.875 20.129-8.358 8.102-2.928 16.411-5.423 24.894-7.468 11.334-2.732 22.985-4.648 34.888-5.687 6.89-0.601 13.861-0.927 20.907-0.927s14.018 0.326 20.908 0.929c11.903 1.039 23.552 2.955 34.886 5.687 8.485 2.045 16.792 4.538 24.894 7.468 6.863 2.481 13.576 5.276 20.129 8.358 7.854 3.691 15.477 7.792 22.831 12.291 10.091 6.172 19.679 13.083 28.702 20.647 10.703 8.973 20.602 18.872 29.576 29.576 7.565 9.024 14.475 18.613 20.647 28.704 4.498 7.354 8.599 14.977 12.291 22.829 3.080 6.552 5.875 13.267 8.358 20.129 2.928 8.102 5.423 16.411 7.468 24.894 2.732 11.334 4.648 22.985 5.687 34.886 0.601 6.89 0.927 13.861 0.927 20.907 0 7.048-0.326 14.016-0.927 20.907-1.041 11.903-2.957 23.552-5.687 34.886-2.045 8.485-4.538 16.792-7.468 24.894-2.481 6.863-5.277 13.576-8.358 20.129-3.691 7.854-7.792 15.475-12.291 22.829-6.172 10.091-13.084 19.68-20.647 28.704-8.973 10.703-18.872 20.602-29.576 29.576-9.024 7.565-18.611 14.473-28.702 20.647-7.355 4.499-14.977 8.6-22.831 12.291-6.552 3.080-13.265 5.875-20.129 8.358-8.102 2.928-16.411 5.423-24.894 7.468-11.334 2.732-22.983 4.648-34.886 5.687-6.89 0.602-13.861 0.927-20.908 0.927s-14.016-0.325-20.907-0.927c-11.903-1.039-23.554-2.957-34.888-5.687-8.485-2.045-16.792-4.538-24.894-7.468-6.867-2.48-13.578-5.274-20.13-8.353z" />
<glyph unicode="&#xe61b;" d="M511.999 700.98c-144.534 0-262.125-117.589-262.125-262.125 0-144.534 117.589-262.123 262.125-262.123s262.123 117.589 262.123 262.123c0 144.538-117.589 262.125-262.123 262.125zM458.781 754.627h106.436c8.42 0 15.654 3.515 19.849 9.643 4.196 6.127 4.852 14.144 1.805 21.996l-58.56 150.775c-4.667 12.020-12.223 13.814-16.312 13.814s-11.645-1.795-16.312-13.812l-58.562-150.779c-3.047-7.851-2.388-15.865 1.805-21.994 4.195-6.129 11.431-9.643 19.851-9.643zM565.217 123.087h-106.436c-8.42 0-15.656-3.517-19.849-9.644-4.193-6.129-4.852-14.144-1.805-21.994l58.56-150.779c4.667-12.017 12.223-13.811 16.312-13.811s11.645 1.794 16.312 13.811l58.56 150.78c3.047 7.847 2.391 15.862-1.805 21.993-4.195 6.127-11.43 9.644-19.849 9.644zM213.4 631.57c4.036-9.164 11.759-14.634 20.661-14.634 6.097 0 12.142 2.691 17.023 7.573l75.262 75.261c5.953 5.953 8.584 13.556 7.215 20.858-1.37 7.298-6.572 13.432-14.276 16.826l-148.023 65.21c-3.736 1.645-7.255 2.48-10.457 2.48-5.356 0-9.971-2.368-12.663-6.495-2.271-3.482-4.106-9.616 0.052-19.056l65.206-148.021zM810.598 246.142c-4.036 9.164-11.758 14.634-20.657 14.634-6.099 0-12.146-2.692-17.028-7.575l-75.262-75.261c-5.953-5.955-8.584-13.56-7.215-20.858s6.574-13.432 14.276-16.824l148.021-65.211c3.736-1.645 7.255-2.48 10.457-2.48 5.356 0 9.971 2.371 12.663 6.495 2.272 3.485 4.108 9.618-0.050 19.056l-65.205 148.023zM772.913 624.509c4.882-4.882 10.929-7.573 17.026-7.573 8.9 0 16.622 5.47 20.661 14.634l65.208 148.020c4.16 9.442 2.324 15.574 0.052 19.056-2.692 4.128-7.307 6.495-12.663 6.495-3.203 0-6.721-0.835-10.459-2.481l-148.021-65.205c-7.703-3.395-12.909-9.527-14.276-16.827-1.369-7.3 1.262-14.905 7.215-20.858l75.257-75.261zM251.085 253.201c-4.882 4.882-10.929 7.575-17.028 7.575-8.9 0-16.622-5.47-20.657-14.634l-65.208-148.020c-4.16-9.442-2.324-15.574-0.052-19.058 2.692-4.126 7.309-6.495 12.663-6.495 3.203 0 6.721 0.835 10.459 2.483l148.021 65.208c7.703 3.393 12.909 9.527 14.276 16.826 1.369 7.298-1.26 14.903-7.215 20.858l-75.259 75.257zM1010.186 455.17l-150.774 58.555c-3.249 1.263-6.519 1.902-9.715 1.902-12.705 0-21.926-9.907-21.926-23.555l0.002-106.437c0-13.648 9.221-23.555 21.926-23.555 3.199 0 6.469 0.639 9.715 1.901l150.775 58.56c12.017 4.668 13.811 12.224 13.811 16.315 0 4.088-1.799 11.647-13.814 16.314zM174.302 362.081c12.706 0 21.929 9.907 21.929 23.555v106.437c0 13.648-9.221 23.555-21.929 23.555-3.199 0-6.465-0.639-9.713-1.901l-150.777-58.559c-12.017-4.667-13.812-12.223-13.812-16.314 0-4.089 1.794-11.645 13.812-16.317l150.774-58.555c3.249-1.262 6.517-1.902 9.716-1.902z" />
<glyph unicode="&#xe61c;" d="M873.558 457.316c-11.723 4.349-24.996 0.875-32.995-8.823-44.868-54.717-111.058-86.137-181.722-86.137-129.556 0-234.865 105.384-234.865 234.89 0 65.19 26.271 125.881 74.065 170.85 9.148 8.674 11.774 22.121 6.598 33.57-5.174 11.398-17.048 18.397-29.595 17.098-195.97-19.022-343.698-181.998-343.698-379.042 0-210.019 170.874-380.893 380.893-380.893 207.544 0 374.668 162.625 380.417 370.245 0.35 12.549-7.324 23.896-19.097 28.245z" />
<glyph unicode="&#xe915;" d="M864 768h-512c-88 0-160-72-160-160v-512c0-88 72-160 160-160h512c88 0 160 72 160 160v512c0 88-72 160-160 160zM416 64c-53.020 0-96 42.98-96 96s42.98 96 96 96 96-42.98 96-96-42.98-96-96-96zM416 448c-53.020 0-96 42.98-96 96s42.98 96 96 96 96-42.98 96-96-42.98-96-96-96zM608 256c-53.020 0-96 42.98-96 96s42.98 96 96 96 96-42.98 96-96-42.98-96-96-96zM800 64c-53.020 0-96 42.98-96 96s42.98 96 96 96 96-42.98 96-96-42.98-96-96-96zM800 448c-53.020 0-96 42.98-96 96s42.98 96 96 96 96-42.98 96-96-42.98-96-96-96zM828.76 832c-14.93 72.804-79.71 128-156.76 128h-512c-88 0-160-72-160-160v-512c0-77.046 55.196-141.83 128-156.76v636.76c0 35.2 28.8 64 64 64h636.76z" />
<glyph unicode="&#xe960;" d="M512 384l256 256h-192v256h-128v-256h-192zM744.726 488.728l-71.74-71.742 260.080-96.986-421.066-157.018-421.066 157.018 260.080 96.986-71.742 71.742-279.272-104.728v-256l512-192 512 192v256z" />
<glyph unicode="&#xe961;" d="M448 384h128v256h192l-256 256-256-256h192zM640 528v-98.712l293.066-109.288-421.066-157.018-421.066 157.018 293.066 109.288v98.712l-384-144v-256l512-192 512 192v256z" />
<glyph unicode="&#xf005;" d="M950.857 581.143q0-12.571-14.857-27.429l-207.429-202.286 49.143-285.714q0.571-4 0.571-11.429 0-12-6-20.286t-17.429-8.286q-10.857 0-22.857 6.857l-256.571 134.857-256.571-134.857q-12.571-6.857-22.857-6.857-12 0-18 8.286t-6 20.286q0 3.429 1.143 11.429l49.143 285.714-208 202.286q-14.286 15.429-14.286 27.429 0 21.143 32 26.286l286.857 41.714 128.571 260q10.857 23.429 28 23.429t28-23.429l128.571-260 286.857-41.714q32-5.143 32-26.286z" horiz-adv-x="951" />
<glyph unicode="&#xf007;" d="M804.571 148q0-68.571-41.714-108.286t-110.857-39.714h-499.429q-69.143 0-110.857 39.714t-41.714 108.286q0 30.286 2 59.143t8 62.286 15.143 62 24.571 55.714 35.429 46.286 48.857 30.571 63.714 11.429q5.143 0 24-12.286t42.571-27.429 61.714-27.429 76.286-12.286 76.286 12.286 61.714 27.429 42.571 27.429 24 12.286q34.857 0 63.714-11.429t48.857-30.571 35.429-46.286 24.571-55.714 15.143-62 8-62.286 2-59.143zM621.714 658.286q0-90.857-64.286-155.143t-155.143-64.286-155.143 64.286-64.286 155.143 64.286 155.143 155.143 64.286 155.143-64.286 64.286-155.143z" horiz-adv-x="805" />
<glyph unicode="&#xf00c;" d="M1025.609 657.554q0-26.508-18.556-45.065l-569.941-569.941q-18.556-18.556-45.065-18.556t-45.065 18.556l-330.035 330.035q-18.556 18.556-18.556 45.065t18.556 45.065l90.13 90.13q18.556 18.556 45.065 18.556t45.065-18.556l194.84-195.502 434.745 435.409q18.556 18.556 45.065 18.556t45.065-18.556l90.13-90.13q18.556-18.556 18.556-45.065z" />
<glyph unicode="&#xf00d;" d="M795.908 193.108q0-26.508-18.556-45.065l-90.13-90.13q-18.556-18.556-45.065-18.556t-45.065 18.556l-194.84 194.84-194.84-194.84q-18.556-18.556-45.065-18.556t-45.065 18.556l-90.13 90.13q-18.556 18.556-18.556 45.065t18.556 45.065l194.84 194.84-194.84 194.84q-18.556 18.556-18.556 45.065t18.556 45.065l90.13 90.13q18.556 18.556 45.065 18.556t45.065-18.556l194.84-194.84 194.84 194.84q18.556 18.556 45.065 18.556t45.065-18.556l90.13-90.13q18.556-18.556 18.556-45.065t-18.556-45.065l-194.84-194.84 194.84-194.84q18.556-18.556 18.556-45.065z" horiz-adv-x="805" />
<glyph unicode="&#xf040;" d="M243.597 14.715l60.308 60.308-155.74 155.74-60.308-60.308v-70.911h84.828v-84.828h70.911zM590.201 629.72q0 14.579-14.579 14.579-6.627 0-11.266-4.639l-359.195-359.195q-4.639-4.639-4.639-11.266 0-14.579 14.579-14.579 6.627 0 11.266 4.639l359.195 359.195q4.639 4.639 4.639 11.266zM554.414 756.964l275.692-275.692-551.385-551.385h-275.692v275.692zM1007.052 693.343q0-35.125-24.52-59.645l-110.012-110.012-275.692 275.692 110.012 109.35q23.857 25.183 59.645 25.183 35.125 0 60.308-25.183l155.74-155.077q24.52-25.846 24.52-60.308z" />
<glyph unicode="&#xf050;" d="M25.714 7.428q-10.857-10.857-18.286-7.429t-7.429 18.286v841.143q0 14.857 7.429 18.286t18.286-7.429l405.714-405.714q4.571-4.571 7.429-10.857v405.714q0 14.857 7.429 18.286t18.286-7.429l405.714-405.714q4.571-4.571 7.429-10.857v387.429q0 14.857 10.857 25.714t25.714 10.857h73.143q14.857 0 25.714-10.857t10.857-25.714v-804.571q0-14.857-10.857-25.714t-25.714-10.857h-73.143q-14.857 0-25.714 10.857t-10.857 25.714v387.429q-2.857-5.714-7.429-10.857l-405.714-405.714q-10.857-10.857-18.286-7.429t-7.429 18.286v405.714q-2.857-5.714-7.429-10.857z" />
<glyph unicode="&#xf051;" d="M25.714 7.428q-10.857-10.857-18.286-7.429t-7.429 18.286v841.143q0 14.857 7.429 18.286t18.286-7.429l405.714-405.714q4.571-4.571 7.429-10.857v387.429q0 14.857 10.857 25.714t25.714 10.857h73.143q14.857 0 25.714-10.857t10.857-25.714v-804.571q0-14.857-10.857-25.714t-25.714-10.857h-73.143q-14.857 0-25.714 10.857t-10.857 25.714v387.429q-2.857-5.714-7.429-10.857z" horiz-adv-x="585" />
<glyph unicode="&#xf06e;" d="M950.857 402.286q-86.857 134.857-217.714 201.714 34.857-59.429 34.857-128.571 0-105.714-75.143-180.857t-180.857-75.143-180.857 75.143-75.143 180.857q0 69.143 34.857 128.571-130.857-66.857-217.714-201.714 76-117.143 190.571-186.571t248.286-69.429 248.286 69.429 190.571 186.571zM539.429 621.714q0 11.429-8 19.429t-19.429 8q-71.429 0-122.571-51.143t-51.143-122.571q0-11.429 8-19.429t19.429-8 19.429 8 8 19.429q0 49.143 34.857 84t84 34.857q11.429 0 19.429 8t8 19.429zM1024 402.286q0-19.429-11.429-39.429-80-131.429-215.143-210.571t-285.429-79.143-285.429 79.429-215.143 210.286q-11.429 20-11.429 39.429t11.429 39.429q80 130.857 215.143 210.286t285.429 79.429 285.429-79.429 215.143-210.286q11.429-20 11.429-39.429z" />
<glyph unicode="&#xf070;" d="M317.143 188l44.571 80.571q-49.714 36-77.714 90.857t-28 116q0 69.143 34.857 128.571-130.857-66.857-217.714-201.714 95.429-147.429 244-214.286zM539.429 621.714q0 11.429-8 19.429t-19.429 8q-71.429 0-122.571-51.143t-51.143-122.571q0-11.429 8-19.429t19.429-8 19.429 8 8 19.429q0 49.143 34.857 84t84 34.857q11.429 0 19.429 8t8 19.429zM746.857 730.857q0-4-0.571-5.143-60-107.429-180-323.429t-180.571-324l-28-50.857q-5.714-9.143-16-9.143-6.857 0-76.571 40-9.143 5.714-9.143 16 0 6.857 25.143 49.714-81.714 37.143-150.571 98.857t-119.143 140q-11.429 17.714-11.429 39.429t11.429 39.429q87.429 134.286 217.143 212t283.429 77.714q50.857 0 102.857-9.714l30.857 55.429q5.714 9.143 16 9.143 2.857 0 10.286-3.429t17.714-8.857 18.857-10.571 18-10.571 11.143-6.571q9.143-5.714 9.143-15.429zM768 475.428q0-79.429-45.143-144.857t-119.429-94l160 286.857q4.571-25.714 4.571-48zM1024 402.286q0-20-11.429-39.429-22.286-36.571-62.286-82.857-85.714-98.286-198.571-152.571t-239.714-54.286l42.286 75.429q121.143 10.286 224.286 78.286t172.286 175.429q-65.714 102.286-161.143 168l36 64q54.286-36.571 104.286-87.429t82.571-105.143q11.429-19.429 11.429-39.429z" />
<glyph unicode="&#xf073;" d="M73.143 0h164.571v164.571h-164.571v-164.571zM274.286 0h182.857v164.571h-182.857v-164.571zM73.143 201.143h164.571v182.857h-164.571v-182.857zM274.286 201.143h182.857v182.857h-182.857v-182.857zM73.143 420.571h164.571v164.571h-164.571v-164.571zM493.714 0h182.857v164.571h-182.857v-164.571zM274.286 420.571h182.857v164.571h-182.857v-164.571zM713.143 0h164.571v164.571h-164.571v-164.571zM493.714 201.143h182.857v182.857h-182.857v-182.857zM292.571 694.857v164.571q0 7.429-5.429 12.857t-12.857 5.429h-36.571q-7.429 0-12.857-5.429t-5.429-12.857v-164.571q0-7.429 5.429-12.857t12.857-5.429h36.571q7.429 0 12.857 5.429t5.429 12.857zM713.143 201.143h164.571v182.857h-164.571v-182.857zM493.714 420.571h182.857v164.571h-182.857v-164.571zM713.143 420.571h164.571v164.571h-164.571v-164.571zM731.429 694.857v164.571q0 7.429-5.429 12.857t-12.857 5.429h-36.571q-7.429 0-12.857-5.429t-5.429-12.857v-164.571q0-7.429 5.429-12.857t12.857-5.429h36.571q7.429 0 12.857 5.429t5.429 12.857zM950.857 731.428v-731.429q0-29.714-21.714-51.429t-51.429-21.714h-804.571q-29.714 0-51.429 21.714t-21.714 51.429v731.429q0 29.714 21.714 51.429t51.429 21.714h73.143v54.857q0 37.714 26.857 64.571t64.571 26.857h36.571q37.714 0 64.571-26.857t26.857-64.571v-54.857h219.429v54.857q0 37.714 26.857 64.571t64.571 26.857h36.571q37.714 0 64.571-26.857t26.857-64.571v-54.857h73.143q29.714 0 51.429-21.714t21.714-51.429z" horiz-adv-x="951" />
<glyph unicode="&#xf0a1;" d="M950.857 585.143q30.286 0 51.714-21.429t21.429-51.714-21.429-51.714-51.714-21.429v-219.429q0-29.714-21.714-51.429t-51.429-21.714q-238.286 198.286-464 217.143-33.143-10.857-52-37.714t-17.714-57.429 22.857-52.857q-11.429-18.857-13.143-37.429t3.429-33.143 19.143-31.429 27.429-28.571 35.143-28.857q-16.571-33.143-63.714-47.429t-96.286-6.571-75.429 31.714q-4 13.143-16.857 50t-18.286 54-13.143 50.857-8.571 57.714 2 56.286 12.571 63.143h-69.714q-37.714 0-64.571 26.857t-26.857 64.571v109.714q0 37.714 26.857 64.571t64.571 26.857h274.286q248.571 0 512 219.429 29.714 0 51.429-21.714t21.714-51.429v-219.429zM877.714 240v545.143q-225.143-172.571-438.857-196v-154.286q215.429-24 438.857-194.857z" />
<glyph unicode="&#xf0c0;" d="M338.857 438.857q-92.571-2.857-151.429-73.143h-76.571q-46.857 0-78.857 23.143t-32 67.714q0 201.714 70.857 201.714 3.429 0 24.857-12t55.714-24.286 68-12.286q38.286 0 76 13.143-2.857-21.143-2.857-37.714 0-79.429 46.286-146.286zM950.857 74.857q0-68.571-41.714-108.286t-110.857-39.714h-499.429q-69.143 0-110.857 39.714t-41.714 108.286q0 30.286 2 59.143t8 62.286 15.143 62 24.571 55.714 35.429 46.286 48.857 30.571 63.714 11.429q5.714 0 24.571-12.286t41.714-27.429 61.143-27.429 77.143-12.286 77.143 12.286 61.143 27.429 41.714 27.429 24.571 12.286q34.857 0 63.714-11.429t48.857-30.571 35.429-46.286 24.571-55.714 15.143-62 8-62.286 2-59.143zM365.714 804.571q0-60.571-42.857-103.429t-103.429-42.857-103.429 42.857-42.857 103.429 42.857 103.429 103.429 42.857 103.429-42.857 42.857-103.429zM768 585.143q0-90.857-64.286-155.143t-155.143-64.286-155.143 64.286-64.286 155.143 64.286 155.143 155.143 64.286 155.143-64.286 64.286-155.143zM1097.143 456.571q0-44.571-32-67.714t-78.857-23.143h-76.571q-58.857 70.286-151.429 73.143 46.286 66.857 46.286 146.286 0 16.571-2.857 37.714 37.714-13.143 76-13.143 33.714 0 68 12.286t55.714 24.286 24.857 12q70.857 0 70.857-201.714zM1024 804.571q0-60.571-42.857-103.429t-103.429-42.857-103.429 42.857-42.857 103.429 42.857 103.429 103.429 42.857 103.429-42.857 42.857-103.429z" horiz-adv-x="1097" />
<glyph unicode="&#xf0e3;" d="M1012 73.143q0-30.286-21.143-51.429l-61.143-61.714q-22.286-21.143-52-21.143-30.286 0-51.429 21.143l-207.429 208q-21.714 20.571-21.714 51.429 0 30.286 24.571 54.857l-146.286 146.286-72-72q-8-8-19.429-8t-19.429 8q1.143-1.143 7.143-6.857t7.143-7.429 5.714-6.571 5.714-7.714 3.429-7.714 3.143-9.429 0.857-10.286q0-21.714-16-38.857-1.714-1.714-9.429-10.286t-10.857-11.714-10.571-9.429-12.571-8.857-12.571-5.143-14.857-2.571q-22.857 0-38.857 16l-233.143 233.143q-16 16-16 38.857 0 7.429 2.571 14.857t5.143 12.571 8.857 12.571 9.429 10.571 11.714 10.857 10.286 9.429q17.143 16 38.857 16 5.714 0 10.286-0.857t9.429-3.143 7.714-3.429 7.714-5.714 6.571-5.714 7.429-7.143 6.857-7.143q-8 8-8 19.429t8 19.429l198.857 198.857q8 8 19.429 8t19.429-8q-1.143 1.143-7.143 6.857t-7.143 7.429-5.714 6.571-5.714 7.714-3.429 7.714-3.143 9.429-0.857 10.286q0 21.714 16 38.857 1.714 1.714 9.429 10.286t10.857 11.714 10.571 9.429 12.571 8.857 12.571 5.143 14.857 2.571q22.857 0 38.857-16l233.143-233.143q16-16 16-38.857 0-7.429-2.571-14.857t-5.143-12.571-8.857-12.571-9.429-10.571-11.714-10.857-10.286-9.429q-17.143-16-38.857-16-5.714 0-10.286 0.857t-9.429 3.143-7.714 3.429-7.714 5.714-6.571 5.714-7.429 7.143-6.857 7.143q8-8 8-19.429t-8-19.429l-72-72 146.286-146.286q24.571 24.571 54.857 24.571 29.714 0 52-21.143l207.429-207.429q21.143-22.286 21.143-52z" />
<glyph unicode="&#xf0e4;" d="M219.429 292.571q0 30.286-21.429 51.714t-51.714 21.429-51.714-21.429-21.429-51.714 21.429-51.714 51.714-21.429 51.714 21.429 21.429 51.714zM329.143 548.571q0 30.286-21.429 51.714t-51.714 21.429-51.714-21.429-21.429-51.714 21.429-51.714 51.714-21.429 51.714 21.429 21.429 51.714zM573.714 273.714l57.714 218.286q3.429 14.857-4.286 27.714t-22 16.857-27.429-3.714-17.143-22.571l-57.714-218.286q-34.286-2.857-61.143-24.857t-36-56.286q-11.429-44 11.429-83.429t66.857-50.857 83.429 11.429 50.857 66.857q9.143 34.286-3.429 66.857t-41.143 52zM950.857 292.571q0 30.286-21.429 51.714t-51.714 21.429-51.714-21.429-21.429-51.714 21.429-51.714 51.714-21.429 51.714 21.429 21.429 51.714zM585.143 658.286q0 30.286-21.429 51.714t-51.714 21.429-51.714-21.429-21.429-51.714 21.429-51.714 51.714-21.429 51.714 21.429 21.429 51.714zM841.143 548.571q0 30.286-21.429 51.714t-51.714 21.429-51.714-21.429-21.429-51.714 21.429-51.714 51.714-21.429 51.714 21.429 21.429 51.714zM1024 292.571q0-149.143-80.571-276-10.857-16.571-30.857-16.571h-801.143q-20 0-30.857 16.571-80.571 126.286-80.571 276 0 104 40.571 198.857t109.143 163.429 163.429 109.143 198.857 40.571 198.857-40.571 163.429-109.143 109.143-163.429 40.571-198.857z" />
<glyph unicode="&#xf126;" d="M164.571 73.143q0 22.857-16 38.857t-38.857 16-38.857-16-16-38.857 16-38.857 38.857-16 38.857 16 16 38.857zM164.571 731.429q0 22.857-16 38.857t-38.857 16-38.857-16-16-38.857 16-38.857 38.857-16 38.857 16 16 38.857zM530.286 658.286q0 22.857-16 38.857t-38.857 16-38.857-16-16-38.857 16-38.857 38.857-16 38.857 16 16 38.857zM585.143 658.286q0-29.714-14.857-55.143t-40-39.714q-1.143-164-129.143-236.571-38.857-21.714-116-46.286-73.143-22.857-96.857-40.571t-23.714-57.143v-14.857q25.143-14.286 40-39.714t14.857-55.143q0-45.714-32-77.714t-77.714-32-77.714 32-32 77.714q0 29.714 14.857 55.143t40 39.714v468.571q-25.143 14.286-40 39.714t-14.857 55.143q0 45.714 32 77.714t77.714 32 77.714-32 32-77.714q0-29.714-14.857-55.143t-40-39.714v-284q30.857 14.857 88 32.571 31.429 9.714 50 16.857t40.286 17.714 33.714 22.571 23.143 29.143 16 39.714 4.857 52.286q-25.143 14.286-40 39.714t-14.857 55.143q0 45.714 32 77.714t77.714 32 77.714-32 32-77.714z" horiz-adv-x="585" />
<glyph unicode="&#xf135;" d="M822.857 694.857q0 22.857-16 38.857t-38.857 16-38.857-16-16-38.857 16-38.857 38.857-16 38.857 16 16 38.857zM950.857 859.428q0-142.286-43.143-246t-144.857-206q-46.286-45.714-111.429-100.571l-11.429-216.571q-1.143-9.143-9.143-14.857l-219.429-128q-4-2.286-9.143-2.286-6.857 0-13.143 5.143l-36.571 36.571q-7.429 8-4.571 18.286l48.571 157.714-160.571 160.571-157.714-48.571q-1.714-0.571-5.143-0.571-8 0-13.143 5.143l-36.571 36.571q-9.714 10.857-2.857 22.286l128 219.429q5.714 8 14.857 9.143l216.571 11.429q54.857 65.143 100.571 111.429 107.429 106.857 204.571 147.429t246.286 40.571q8 0 13.714-5.429t5.714-12.857z" horiz-adv-x="951" />
<glyph unicode="&#xf144;" d="M511.999 947.827q138.51 0 255.48-68.26t185.231-185.231 68.26-255.48-68.26-255.48-185.231-185.231-255.48-68.26-255.48 68.26-185.231 185.231-68.26 255.48 68.26 255.48 185.231 185.231 255.48 68.26zM766.484 402.406q21.208 11.929 21.208 36.451t-21.208 36.451l-360.52 212.071q-20.544 12.591-42.414 0.662-21.208-12.591-21.208-37.113v-424.142q0-24.52 21.208-37.113 10.603-5.302 21.208-5.302 11.266 0 21.208 5.965z" />
<glyph unicode="&#xf179;" d="M796 256.571q-22.286-71.429-70.286-142.857-73.714-112-146.857-112-28 0-80 18.286-49.143 18.286-86.286 18.286-34.857 0-81.143-18.857-46.286-19.429-75.429-19.429-86.857 0-172 148-84 149.143-84 287.429 0 130.286 64.571 213.714 64 82.286 162.286 82.286 41.143 0 101.143-17.143 59.429-17.143 78.857-17.143 25.714 0 81.714 19.429 58.286 19.429 98.857 19.429 68 0 121.714-37.143 29.714-20.571 59.429-57.143-45.143-38.286-65.143-67.429-37.143-53.714-37.143-118.286 0-70.857 39.429-127.429t90.286-72zM581.143 926.857q0-34.857-16.571-77.714-17.143-42.857-53.143-78.857-30.857-30.857-61.714-41.143-21.143-6.286-59.429-9.714 1.714 85.143 44.571 146.857 42.286 61.143 142.857 84.571 0.571-1.714 1.429-6.286t1.429-6.286q0-2.286 0.286-5.714t0.286-5.714z" horiz-adv-x="805" />
<glyph unicode="&#xf17b;" d="M281.714 674.857q9.143 0 15.714 6.571t6.571 15.714-6.571 15.714-15.714 6.571-15.429-6.571-6.286-15.714 6.286-15.714 15.429-6.571zM522.857 674.857q9.143 0 15.429 6.571t6.286 15.714-6.286 15.714-15.429 6.571-15.714-6.571-6.571-15.714 6.571-15.714 15.714-6.571zM58.857 569.714q24 0 41.143-17.143t17.143-41.143v-245.714q0-24.571-16.857-41.714t-41.429-17.143-41.714 17.143-17.143 41.714v245.714q0 24 17.143 41.143t41.714 17.143zM664.571 558.857v-380.571q0-26.286-18.286-44.571t-44-18.286h-42.857v-129.714q0-24.571-17.143-41.714t-41.714-17.143-41.714 17.143-17.143 41.714v129.714h-78.857v-129.714q0-24.571-17.143-41.714t-41.714-17.143q-24 0-41.143 17.143t-17.143 41.714l-0.571 129.714h-42.286q-26.286 0-44.571 18.286t-18.286 44.571v380.571h524.571zM532 790.286q61.143-31.429 97.714-87.714t36.571-123.143h-528.571q0 66.857 36.571 123.143t98.286 87.714l-40.571 74.857q-4 7.429 2.857 11.429 7.429 3.429 11.429-3.429l41.143-75.429q54.286 24 114.857 24t114.857-24l41.143 75.429q4 6.857 11.429 3.429 6.857-4 2.857-11.429zM804.571 511.428v-245.714q0-24.571-17.143-41.714t-41.714-17.143q-24 0-41.143 17.143t-17.143 41.714v245.714q0 24.571 17.143 41.429t41.143 16.857q24.571 0 41.714-16.857t17.143-41.429z" horiz-adv-x="805" />
<glyph unicode="&#xf1b8;" d="M477.714 246.286l-8.571-210.286-1.143-12.571-240 16.571q-20.571 1.714-38.286 18t-26.857 37.429q-6.286 15.429-8.286 31.429t2.286 37.143 6.857 31.429 12.286 36.571 10.857 30.286q44.571-6.857 290.857-16zM256.571 581.143l102.857-216.571-84 52.571q-36-41.143-63.714-82.571t-41.429-71.429-22.571-54-10.571-36l-2.286-12-108.571 204q-9.714 14.857-10.286 32t3.429 26.857l4.571 10.286q20 36 65.143 107.429l-80 49.143zM960 285.715l-107.429-205.143q-6.857-16.571-20.857-26.571t-24.857-11.714l-10.286-2.286q-40.571-4-125.143-6.857l4.571-93.714-131.429 209.714 120.571 206.857 4-98.857q97.143-9.143 161.714-2.857t97.143 18.857zM511.429 813.715q-26.857-36-151.429-248.571l-181.143 106.857-10.857 6.857 128.571 203.429q11.429 17.714 34.286 25.714t45.714 5.714q13.714-1.143 27.714-6.857t24-12 23.714-18.857 20.571-19.714 20.571-22.571 18.286-20zM885.714 638.286l121.143-207.429q10.286-21.143 7.143-43.429t-15.714-42.286q-7.429-11.429-18.857-21.143t-21.714-16-27.714-12.571-26.857-9.143-29.429-8-26.286-6.857q-19.429 41.143-151.429 249.143l178.857 111.429zM804 767.429l81.143 47.429-125.714-213.143-239.429 11.429 86.286 49.143q-19.429 50.857-42.857 94.857t-43.143 70.571-36.857 45.714-26.857 26.571l-9.714 7.429 231.429-0.571q17.714 1.714 33.143-6t22.286-16.286l6.286-8.571q22.286-34.857 64-108.571z" />
<glyph unicode="&#xf1de;" d="M236.307 141.958v-84.828h-233.279v84.828h233.279zM469.585 226.785q17.231 0 29.822-12.591t12.591-29.822v-169.657q0-17.231-12.591-29.822t-29.822-12.591h-169.657q-17.231 0-29.822 12.591t-12.591 29.822v169.657q0 17.231 12.591 29.822t29.822 12.591h169.657zM575.62 481.271v-84.828h-572.591v84.828h572.591zM151.478 820.584v-84.828h-148.45v84.828h148.45zM1020.969 141.958v-84.828h-487.763v84.828h487.763zM384.756 905.412q17.231 0 29.822-12.591t12.591-29.822v-169.657q0-17.231-12.591-29.822t-29.822-12.591h-169.657q-17.231 0-29.822 12.591t-12.591 29.822v169.657q0 17.231 12.591 29.822t29.822 12.591h169.657zM808.898 566.1q17.231 0 29.822-12.591t12.591-29.822v-169.657q0-17.231-12.591-29.822t-29.822-12.591h-169.657q-17.231 0-29.822 12.591t-12.591 29.822v169.657q0 17.231 12.591 29.822t29.822 12.591h169.657zM1020.969 481.271v-84.828h-148.45v84.828h148.45zM1020.969 820.584v-84.828h-572.591v84.828h572.591z" />
<glyph unicode="&#xf1ea;" d="M585.143 658.286h-219.429v-219.429h219.429v219.429zM658.286 292.571v-73.143h-365.714v73.143h365.714zM658.286 731.428v-365.714h-365.714v365.714h365.714zM1024 292.571v-73.143h-292.571v73.143h292.571zM1024 438.857v-73.143h-292.571v73.143h292.571zM1024 585.143v-73.143h-292.571v73.143h292.571zM1024 731.428v-73.143h-292.571v73.143h292.571zM146.286 182.857v548.571h-73.143v-548.571q0-14.857 10.857-25.714t25.714-10.857 25.714 10.857 10.857 25.714zM1097.143 182.857v621.714h-877.714v-621.714q0-18.857-6.286-36.571h847.429q14.857 0 25.714 10.857t10.857 25.714zM1170.286 877.714v-694.857q0-45.714-32-77.714t-77.714-32h-950.857q-45.714 0-77.714 32t-32 77.714v621.714h146.286v73.143h1024z" horiz-adv-x="1170" />
<glyph unicode="&#xf1f8;" d="M292.571 164.571v402.286q0 8-5.143 13.143t-13.143 5.143h-36.571q-8 0-13.143-5.143t-5.143-13.143v-402.286q0-8 5.143-13.143t13.143-5.143h36.571q8 0 13.143 5.143t5.143 13.143zM438.857 164.571v402.286q0 8-5.143 13.143t-13.143 5.143h-36.571q-8 0-13.143-5.143t-5.143-13.143v-402.286q0-8 5.143-13.143t13.143-5.143h36.571q8 0 13.143 5.143t5.143 13.143zM585.143 164.571v402.286q0 8-5.143 13.143t-13.143 5.143h-36.571q-8 0-13.143-5.143t-5.143-13.143v-402.286q0-8 5.143-13.143t13.143-5.143h36.571q8 0 13.143 5.143t5.143 13.143zM274.286 731.428h256l-27.429 66.857q-4 5.143-9.714 6.286h-181.143q-5.714-1.143-9.714-6.286zM804.571 713.143v-36.571q0-8-5.143-13.143t-13.143-5.143h-54.857v-541.714q0-47.429-26.857-82t-64.571-34.571h-475.429q-37.714 0-64.571 33.429t-26.857 80.857v544h-54.857q-8 0-13.143 5.143t-5.143 13.143v36.571q0 8 5.143 13.143t13.143 5.143h176.571l40 95.429q8.571 21.143 30.857 36t45.143 14.857h182.857q22.857 0 45.143-14.857t30.857-36l40-95.429h176.571q8 0 13.143-5.143t5.143-13.143z" horiz-adv-x="805" />
<glyph unicode="&#xf234;" d="M402.286 438.857q-90.857 0-155.143 64.286t-64.286 155.143 64.286 155.143 155.143 64.286 155.143-64.286 64.286-155.143-64.286-155.143-155.143-64.286zM950.857 365.714h201.143q7.429 0 12.857-5.429t5.429-12.857v-109.714q0-7.429-5.429-12.857t-12.857-5.429h-201.143v-201.143q0-7.429-5.429-12.857t-12.857-5.429h-109.714q-7.429 0-12.857 5.429t-5.429 12.857v201.143h-201.143q-7.429 0-12.857 5.429t-5.429 12.857v109.714q0 7.429 5.429 12.857t12.857 5.429h201.143v201.143q0 7.429 5.429 12.857t12.857 5.429h109.714q7.429 0 12.857-5.429t5.429-12.857v-201.143zM530.286 237.714q0-29.714 21.714-51.429t51.429-21.714h146.286v-136q-38.857-28.571-97.714-28.571h-499.429q-69.143 0-110.857 39.429t-41.714 108.571q0 30.286 2 59.143t8 62.286 15.143 62 24.571 55.714 35.429 46.286 48.857 30.571 63.714 11.429q10.857 0 22.286-9.714 45.143-34.857 88.286-52.286t94-17.429 94 17.429 88.286 52.286q11.429 9.714 22.286 9.714 75.429 0 124-54.857h-127.429q-29.714 0-51.429-21.714t-21.714-51.429v-109.714z" horiz-adv-x="1170" />
<glyph unicode="&#xf235;" d="M402.286 438.857q-90.857 0-155.143 64.286t-64.286 155.143 64.286 155.143 155.143 64.286 155.143-64.286 64.286-155.143-64.286-155.143-155.143-64.286zM1017.714 256l142.286-142.286q5.143-5.143 5.143-13.143 0-7.429-5.143-12.571l-77.714-77.714q-5.143-5.143-12.571-5.143-8 0-13.143 5.143l-142.286 142.286-142.286-142.286q-5.143-5.143-13.143-5.143-7.429 0-12.571 5.143l-77.714 77.714q-5.143 5.143-5.143 12.571 0 8 5.143 13.143l142.286 142.286-142.286 142.286q-5.143 5.143-5.143 13.143 0 7.429 5.143 12.571l77.714 77.714q5.143 5.143 12.571 5.143 8 0 13.143-5.143l142.286-142.286 142.286 142.286q5.143 5.143 13.143 5.143 7.429 0 12.571-5.143l77.714-77.714q5.143-5.143 5.143-12.571 0-8-5.143-13.143zM733.143 256l-103.429-103.429q-21.143-21.143-21.143-52 0-30.286 21.143-51.429l47.429-47.429q-12-1.714-25.143-1.714h-499.429q-69.143 0-110.857 39.429t-41.714 108.571q0 30.286 2 59.143t8 62.286 15.143 62 24.571 55.714 35.429 46.286 48.857 30.571 63.714 11.429q10.857 0 22.286-9.714 88-69.714 182.286-69.714t182.286 69.714q11.429 9.714 22.286 9.714 16 0 32.571-3.429-16-15.429-23.429-28.571t-7.429-32q0-30.857 21.143-52z" horiz-adv-x="1170" />
</font>
</defs>
</svg>
