<?xml version="1.0" encoding="iso-8859-1"?>
<!-- Generator: Adobe Illustrator 16.0.0, SVG Export Plug-In . SVG Version: 6.00 Build 0)  -->
<!DOCTYPE svg PUBLIC "-//W3C//DTD SVG 1.1//EN" "http://www.w3.org/Graphics/SVG/1.1/DTD/svg11.dtd">
<svg version="1.1" id="Capa_1" xmlns="http://www.w3.org/2000/svg" xmlns:xlink="http://www.w3.org/1999/xlink" x="0px" y="0px"
	 width="404.308px" height="404.309px" viewBox="0 0 404.308 404.309" style="enable-background:new 0 0 404.308 404.309;"
	 xml:space="preserve">
<g>
	<path d="M335.826,0c-22.715,0-41.13,18.416-41.13,41.131c0,4.264,0.649,8.375,1.853,12.24
		c-31.169,13.021-59.062,32.813-83.901,56.148c11.392,4.254,19.506,15.232,19.506,28.107c0,16.567-13.431,29.998-29.998,29.998
		c-12.106,0-22.53-7.176-27.271-17.502c-5.939,7.225-11.658,14.585-17.155,22.018c-27.209,36.853-50.187,76.785-69.829,118.132
		c-8.915,18.766-17.162,37.864-24.54,57.289c-3.008,7.92-6.262,17.598-8.947,26.748h-27.06v30h308.473v-30H304.2
		c-18.679-52.066-25.239-112.726-24.513-166.895c0.624-46.501,9.307-93.054,32.111-132.913c6.762,4.877,15.056,7.758,24.027,7.758
		c22.715,0,41.13-18.414,41.13-41.129C376.956,18.415,358.542,0,335.826,0z M149.789,358.113c-16.567,0-29.998-13.43-29.998-29.998
		c0-16.566,13.431-29.998,29.998-29.998c16.567,0,29.998,13.432,29.998,29.998C179.787,344.684,166.357,358.113,149.789,358.113z
		 M247.284,284.617c-16.567,0-29.999-13.43-29.999-29.998c0-16.566,13.432-29.998,29.999-29.998
		c16.568,0,29.998,13.432,29.998,29.998C277.282,271.188,263.852,284.617,247.284,284.617z"/>
</g>
<g>
</g>
<g>
</g>
<g>
</g>
<g>
</g>
<g>
</g>
<g>
</g>
<g>
</g>
<g>
</g>
<g>
</g>
<g>
</g>
<g>
</g>
<g>
</g>
<g>
</g>
<g>
</g>
<g>
</g>
</svg>
