<?xml version="1.0" encoding="iso-8859-1"?>
<!-- Generator: Adobe Illustrator 18.1.1, SVG Export Plug-In . SVG Version: 6.00 Build 0)  -->
<svg version="1.1" id="Capa_1" xmlns="http://www.w3.org/2000/svg" xmlns:xlink="http://www.w3.org/1999/xlink" x="0px" y="0px"
	 viewBox="0 0 23.305 23.305" style="enable-background:new 0 0 23.305 23.305;" xml:space="preserve">
<g>
	<g>
		<path style="fill:#010002;" d="M11.654,0C5.218,0,0.002,5.218,0.002,11.652c0,6.437,5.216,11.653,11.651,11.653
			c6.437,0,11.651-5.218,11.651-11.653C23.304,5.218,18.088,0,11.654,0z M12.654,21.374v-2.521h-2.005v2.521
			c-4.678-0.479-8.372-4.258-8.729-8.97h4.032v-2.007H1.969c0.574-4.478,4.17-8.006,8.681-8.467v1.791h2.005v-1.79
			c4.516,0.461,8.108,3.989,8.682,8.467h-3.982v2.007h4.034C21.026,17.117,17.332,20.898,12.654,21.374z"/>
		<path style="fill:#010002;" d="M11.651,10.374c1.626,0,2.938-1.312,2.938-2.932c0-1.622-1.312-2.936-2.938-2.936
			c-1.617,0-2.928,1.312-2.928,2.936C8.722,9.061,10.033,10.374,11.651,10.374z"/>
		<path style="fill:#010002;" d="M14.003,10.851H9.302c-0.84,0-1.528,0.771-1.528,1.718v4.723c0,0.051,0.025,0.1,0.028,0.152h7.699
			c0.005-0.054,0.029-0.103,0.029-0.152v-4.723C15.531,11.623,14.845,10.851,14.003,10.851z"/>
	</g>
</g>
<g>
</g>
<g>
</g>
<g>
</g>
<g>
</g>
<g>
</g>
<g>
</g>
<g>
</g>
<g>
</g>
<g>
</g>
<g>
</g>
<g>
</g>
<g>
</g>
<g>
</g>
<g>
</g>
<g>
</g>
</svg>
