<svg xmlns="http://www.w3.org/2000/svg" viewBox="0 0 24.125 24.125"><path d="M9.043 13.852l2.582 1.728c-.622 4.832-6.143 8.545-6.143 8.545l-2.034-1.898 5.595-8.375zM20.677 0l-.039.584c-.674 10.17-5.928 15.016-5.982 15.065l-.143.129-4.956-3.31 6.442-8.994c.361-.566 1.615-2.461 2.299-2.597a.423.423 0 0 1 .445.174c.017.021.059.082.25.044.418-.083 1.032-.545 1.234-.716l.45-.379zm-.79 1.234c-.252.154-.538.298-.798.349-.402.081-.619-.081-.723-.209-.355.13-1.277 1.315-1.955 2.379l-6.153 8.587 4.202 2.806c.488-.494 2.19-2.374 3.617-5.707l-.027-.041s.938-3.564-.174-3.85c-1.112-.285-.955-3.313.328-2.598.999.558 1.504-.998 1.683-1.716zM8.595 13.225l4.081 2.724.514-.768-4.082-2.725-.513.769zm10.065-2.671s-.471 1.026-.375 1.507c.096.479.465.813.822.741.359-.072.572-.52.477-.999-.095-.481-.924-1.249-.924-1.249zm.628-1.402s-.16.353-.129.517c.033.165.158.278.282.254.123-.024.196-.177.164-.342s-.317-.429-.317-.429z" fill="#030104"/></svg>