<?xml version="1.0" encoding="iso-8859-1"?>
<!-- Generator: Adobe Illustrator 18.1.1, SVG Export Plug-In . SVG Version: 6.00 Build 0)  -->
<svg version="1.1" id="Capa_1" xmlns="http://www.w3.org/2000/svg" xmlns:xlink="http://www.w3.org/1999/xlink" x="0px" y="0px"
	 viewBox="0 0 15.931 15.931" style="enable-background:new 0 0 15.931 15.931;" xml:space="preserve">
<g>
	<g>
		<path style="fill:#030104;" d="M11.794,3.483H9.842H6.091H4.138c-0.469,0-0.849,0.38-0.849,0.849v10.749
			c0,0.471,0.38,0.85,0.849,0.85h7.656c0.468,0,0.848-0.379,0.848-0.85V4.332C12.641,3.863,12.262,3.483,11.794,3.483z
			 M10.911,10.828H8.727v2.184H7.204v-2.184H5.021V9.305h2.183V7.122h1.523v2.183h2.184C10.911,9.305,10.911,10.828,10.911,10.828z"
			/>
		<path style="fill:#030104;" d="M6.221,2.745h3.488c0.505,0,0.915-0.409,0.915-0.915V0.915C10.624,0.41,10.214,0,9.709,0H6.221
			C5.716,0,5.306,0.41,5.306,0.915v0.916C5.307,2.336,5.716,2.745,6.221,2.745z"/>
	</g>
</g>
<g>
</g>
<g>
</g>
<g>
</g>
<g>
</g>
<g>
</g>
<g>
</g>
<g>
</g>
<g>
</g>
<g>
</g>
<g>
</g>
<g>
</g>
<g>
</g>
<g>
</g>
<g>
</g>
<g>
</g>
</svg>
