<svg xmlns="http://www.w3.org/2000/svg" viewBox="0 0 325.548 325.548"><g fill="#231f20"><path d="M324.024 158.395l-20.011-25.114c-4.121-4.559-10.23-7.446-17.046-7.446-12.411 0-22.473 9.573-22.473 21.379 0 6.132 2.714 11.661 7.062 15.56v.001c-4.348 3.899-7.062 9.427-7.062 15.559 0 11.807 10.062 21.378 22.473 21.378 6.815 0 12.925-2.888 17.045-7.446h.001l20.018-25.123a7.048 7.048 0 0 0 1.516-4.369 7.032 7.032 0 0 0-1.523-4.379zM252.346 154.773h-20.2C227.979 79.116 165.118 18.841 88.438 18.841c-22.765 0-41.285 18.521-41.285 41.286s18.52 41.286 41.285 41.286c19.788 0 36.37-13.994 40.369-32.604 34.958 14.973 58.624 47.928 61.553 85.965h-53.062V103.44a8 8 0 0 0-16 0v51.333h-45.59l-12.119-24.542a8 8 0 0 0-7.173-4.458h-43.68a8.002 8.002 0 0 0-7.173 11.542l8.621 17.458H8a8 8 0 0 0 0 16h6.185l-8.621 17.458a7.998 7.998 0 0 0 7.173 11.542h43.68a8 8 0 0 0 7.173-4.458l12.119-24.542h45.59v51.333a8 8 0 0 0 16 0v-51.333h53.063c-2.926 38.072-26.592 71.031-61.553 85.972-3.996-18.614-20.579-32.61-40.37-32.61-22.765 0-41.285 18.52-41.285 41.286 0 22.766 18.52 41.286 41.285 41.286 76.681 0 139.542-60.276 143.708-135.934h20.2a8 8 0 1 0-.001-16zm-226.737-13h25.835l6.42 13H32.028l-6.419-13zm25.835 42H25.609l6.419-13h25.836l-6.42 13zm131.852-91.542c-14.77-19.821-35.813-34.821-59.252-42.236a8 8 0 0 0-10.391 8.229c.048.624.071 1.264.071 1.902 0 13.942-11.344 25.286-25.287 25.286-13.942 0-25.285-11.344-25.285-25.286S74.495 34.84 88.437 34.84c67.855 0 123.531 53.103 127.676 119.933h-9.727c-1.506-22.686-9.399-44.167-23.09-62.542zM88.438 290.707c-13.942 0-25.285-11.344-25.285-25.286 0-13.942 11.343-25.286 25.285-25.286 13.943 0 25.287 11.344 25.287 25.286 0 .635-.023 1.275-.07 1.904a8 8 0 0 0 10.384 8.227c23.799-7.506 44.296-22.104 59.275-42.214 13.683-18.369 21.568-39.858 23.073-62.564h9.726c-4.143 66.828-59.82 119.933-127.675 119.933z"/></g></svg>