<svg xmlns="http://www.w3.org/2000/svg" viewBox="0 0 612 612"><path d="M122.855 335.491c3.514 11.463 7.147 23.318 8.96 35.258.741 4.866 3.647 40.261 5.218 59.707a16.104 16.104 0 0 0 13.643 14.626l25.821 3.904a8.915 8.915 0 0 1 7.417 7.097l3.402 17.401a16.105 16.105 0 0 0 15.814 13.014l200.241-.119a16.103 16.103 0 0 0 15.726-12.682l3.896-17.915a8.918 8.918 0 0 1 7.383-6.717l31.437-4.566a16.099 16.099 0 0 0 13.759-14.964c1.206-20.008 3.457-56.434 4.155-61.425 1.653-11.784 5.131-23.432 8.49-34.764 4.709-15.857 9.578-32.225 9.578-49.248.006-108.709-86.402-197.132-192.608-197.132S112.574 175.437 112.574 284.17c.001 17.782 5.227 34.834 10.281 51.321zm207.43-10.032c1.221-30.877 28.91-38.641 59.787-37.421 30.877 1.221 53.249 10.965 52.028 41.842-1.221 30.877-27.241 54.918-58.118 53.697-30.877-1.221-54.918-27.241-53.697-58.118zm-18.166 60.589l20.042 29.679a8.917 8.917 0 0 1 .639 8.871l-2.875 5.951a8.919 8.919 0 0 1-8.03 5.038h-34.334a8.918 8.918 0 0 1-8.03-5.038l-2.875-5.951a8.92 8.92 0 0 1 .639-8.871l20.042-29.679c3.536-5.237 11.246-5.237 14.782 0zm-91.82-98.009c30.877-1.221 58.566 6.543 59.787 37.421 1.221 30.877-22.82 56.897-53.697 58.118-30.877 1.221-56.897-22.82-58.118-53.697-1.221-30.878 21.151-40.622 52.028-41.842zM556.35 58.611c2.402-14.75-2.089-30.405-13.499-41.757-18.326-18.234-48.224-18.566-66.929-.721-19.558 18.659-19.834 49.646-.828 68.652l-17.47 17.47c-6.98 6.981-6.98 18.299 0 25.28l29.802 29.802c6.98 6.981 18.299 6.981 25.279 0l17.47-17.47c19.007 19.007 49.994 18.73 68.652-.828 17.845-18.705 17.512-48.604-.722-66.929C586.754 60.7 571.1 56.209 556.35 58.611zM81.824 139.866l17.47 17.47c6.981 6.981 18.299 6.981 25.279 0l29.802-29.802c6.981-6.981 6.981-18.299 0-25.28l-17.47-17.47c19.007-19.006 18.73-49.993-.828-68.652-18.705-17.844-48.603-17.512-66.929.722-11.409 11.352-15.9 27.007-13.498 41.757C40.9 56.209 25.246 60.7 13.893 72.109c-18.234 18.325-18.567 48.224-.722 66.929 18.659 19.558 49.646 19.834 68.653.828zM598.829 472.962c-18.659-19.559-49.646-19.834-68.652-.828l-17.47-17.47c-6.981-6.981-18.299-6.981-25.279 0l-29.802 29.802c-6.98 6.981-6.98 18.299 0 25.28l17.47 17.47c-19.007 19.007-18.73 49.994.828 68.652 18.705 17.845 48.604 17.513 66.929-.721 11.41-11.352 15.901-27.007 13.499-41.757 14.75 2.402 30.404-2.089 41.756-13.499 18.233-18.326 18.565-48.224.721-66.929zM55.65 553.389c-2.402 14.75 2.089 30.405 13.499 41.757 18.326 18.234 48.224 18.566 66.929.721 19.558-18.659 19.834-49.646.828-68.652l17.47-17.47c6.981-6.98 6.981-18.299 0-25.28l-29.802-29.802c-6.981-6.981-18.299-6.981-25.279 0l-17.47 17.47c-19.007-19.007-49.994-18.731-68.652.828-17.845 18.705-17.513 48.603.721 66.929C25.246 551.3 40.9 555.791 55.65 553.389z"/></svg>