<svg xmlns="http://www.w3.org/2000/svg" width="31.735" height="31.736" viewBox="0 0 31.735 31.736"><path d="M13.963 17.012c0-.742-.604-1.346-1.345-1.346a1.347 1.347 0 0 0 0 2.692c.741 0 1.345-.606 1.345-1.346z"/><circle cx="20.18" cy="17.011" r="1.345"/><path d="M16.393 22.421c1.593 0 2.92-1.11 3.342-2.528h-6.681c.419 1.418 1.749 2.528 3.339 2.528z"/><path d="M31.735 4.968c-3.339-3.595-6.71-.339-8.037 1.275a12.31 12.31 0 0 0-7.567-2.592c-2.996 0-5.746 1.07-7.888 2.849C7.091 5.02 3.525 1.17 0 4.968c0 0 1.169 4.101 6.311 3.541a12.3 12.3 0 0 0-2.551 7.515c0 6.82 5.55 12.369 12.371 12.369 6.821 0 12.37-5.549 12.37-12.369 0-2.805-.938-5.395-2.516-7.472 4.667.217 5.75-3.584 5.75-3.584zm-15.604 20.41c-5.158 0-9.355-4.197-9.355-9.354 0-.684.074-1.35.214-1.992h5.976l-.024-2.518 2.574 2.518h9.76c.139.643.214 1.309.214 1.992-.003 5.157-4.2 9.354-9.359 9.354z"/></svg>