<svg xmlns="http://www.w3.org/2000/svg" width="512" height="512" viewBox="0 0 512 512"><path d="M256 100.867c40.768 29.345 75.684 40.771 116.5 44.536v154.125c0 24.719-7.423 37.486-18.567 49.053-18.974 19.691-53.682 39.149-97.933 66.313-44.255-27.167-78.959-46.623-97.933-66.313-11.145-11.566-18.567-24.334-18.567-49.053V145.403c40.816-3.764 75.732-15.191 116.5-44.536M256 50c-57.861 49.195-96.167 57-156.5 57v192.528c0 79 56.996 99.629 156.5 162.472 99.504-62.843 156.5-83.472 156.5-162.472V107c-60.333 0-98.639-7.805-156.5-57z"/></svg>