<svg xmlns="http://www.w3.org/2000/svg" width="31.475" height="31.474" viewBox="0 0 31.475 31.474"><path d="M31.434 12.136a8.228 8.228 0 0 0-15.697-4.185A8.229 8.229 0 0 0 .04 12.136s.161 8.102 15.798 16.253c15.635-8.151 15.596-16.253 15.596-16.253zM8.461 4.898a1.35 1.35 0 1 1 .003 2.7 1.35 1.35 0 0 1-.003-2.7zm-4.22 10.101a1.41 1.41 0 0 1-1.734-.979 9.046 9.046 0 0 1-.338-2.081c-.126-3.327 1.924-4.963 2.026-5.044a1.407 1.407 0 0 1 1.975.251c.474.609.367 1.48-.229 1.96-.073.061-.962.86-.956 2.57.003.461.069.988.234 1.587a1.41 1.41 0 0 1-.978 1.736z"/></svg>