<svg xmlns="http://www.w3.org/2000/svg" width="512" height="512" viewBox="0 0 512 512"><path d="M420.8 236c-9.078-75.747-69.062-135.722-144.8-144.8V50h-40v41.2c-75.747 9.078-135.722 69.062-144.799 144.8H50v40h41.2c9.078 75.747 69.062 135.722 144.8 144.8V462h40v-41.2c75.746-9.078 135.722-69.062 144.799-144.8H462v-40h-41.2zm-40.374-.069h-34.17c-7.76-34.921-35.324-62.467-70.256-70.2v-34.195c52.23 8.383 95.545 49.326 104.426 104.395zM256 318.455c-34.492 0-62.456-27.962-62.456-62.455s27.964-62.455 62.456-62.455c34.493 0 62.456 27.962 62.456 62.455S290.493 318.455 256 318.455zm-20.003-186.893H236v34.169c-34.932 7.733-62.496 35.279-70.256 70.2h-34.198c8.412-52.221 49.373-95.516 104.451-104.369zm-104.435 144.44l-.011-.071h34.163c7.718 34.986 35.309 62.596 70.286 70.339v34.194c-52.252-8.387-95.581-49.36-104.438-104.462zm144.44 104.436H276V346.27c34.978-7.743 62.568-35.353 70.286-70.339h34.188c-8.362 52.282-49.345 95.645-104.472 104.507zM281 256c0 13.807-11.193 25-25 25s-25-11.193-25-25 11.193-25 25-25 25 11.193 25 25z"/></svg>