<svg xmlns="http://www.w3.org/2000/svg" width="535.416" height="535.417" viewBox="0 0 535.416 535.417"><path d="M500.364 167.693c-9.108-44.77-3.293-138.514-158.318-163.234C187.062-20.285 47.397 58.361 82.528 230.248c0 31.33-62.035 79.965-47.088 96.406 14.946 16.441 40.31 17.083 40.31 17.083s-16.488 31.33-9.073 39.982c7.409 8.653 28.025 4.951 28.025 4.951s-19.156 13.803-19.156 24.511c0 10.72 32.345 24.954 32.345 24.954s-5.932 59.285 42.64 55.174c48.57-4.109 56.75-17.83 56.75-17.83l14.41 59.938H409.68l-6.609-130.27c-.001.012 115.44-125.318 97.293-237.454zm-73.145 70.542l-52.406 11.712-23.262-20.925 8.232-20.925h67.436v30.138zM424.79 57.24l38.769 41.08-38.769 32.556h-21.696V109.95l12.401-15.881-1.542-26.542L424.79 57.24zm-21.696-18.614l-2.312 57.626-20.144 30.232-13.207-4.916 1.752-34.739-33.91-10.603 29.076-43.848 38.745 6.248zM272.007 78.352l.584-47.888 50.001.42 23.541 10.463-15.109 23.845-12.401 17.621 37.191 11.642v24.02l-7.742 21.684-48.074 3.106v-8.512l-9.026-3.877-8.799 27.184-23.547 9.26-31.879-22.875 13.563-24.032 19.384 6.586 3.287-11.63-10.258-7.753 7.076-13.569 40.199 13.569 12.016-5.43-40.007-23.834zm-89.826 17.632h47.292l-37.209-16.266 11.239-19.384 55.122-21.416V72.35l-37.688.502 25.579 15.39-24.037 46.499h-44.957c.011.011 2.329-38.757 4.659-38.757zm-3.632 48.46h32.941l42.627 29.298-27.131 10.836-48.437-40.134zm61.772 68.592V186.68l15.507-8.524 38.762 16.278 24.008 7.753 3.106-12.027-30.991-12.004 2.312-20.926 46.521 1.542 41.08-24.02 41.08 12.401 43.416-31.785 23.261 39.539-55.817 3.865-9.295 24.032 25.573 3.094-17.831-8.524 3.877-12.401 49.861-1.646-3.936 43.345-46.031.257-20.832-17.924-29.473 11.245-22.957-.875 19.875-18.894-44.572-2.032 15.893 19.863-13.954 31.003h-74.412l-24.031-16.279zm117.851 74.033l-41.979-43.801c5.441 0 29.461-6.983 29.461-6.983l35.768 39.924-23.25 10.86z"/></svg>