<svg xmlns="http://www.w3.org/2000/svg" width="69.705" height="69.705" viewBox="0 0 69.705 69.705"><path d="M27.765 44.591h.073v.221h-.073zM59.011 15.904c-3.453 0-7.012 1.436-10.196 4.085-3.188-2.649-6.752-4.085-10.2-4.085-6.301 0-10.702 4.853-10.702 11.802 0 2.705 1.087 5.487 2.682 8.178 1.217-1.469 2.246-2.905 2.971-4.253-.616-1.362-.985-2.686-.985-3.927 0-4.398 2.311-7.13 6.03-7.13 2.77 0 5.881 1.538 8.54 4.224l1.661 1.676 1.655-1.676c2.665-2.684 5.776-4.224 8.543-4.224 3.721 0 6.031 2.732 6.031 7.13 0 6.797-10.703 16.211-16.229 20.354-2.553-1.911-6.185-4.959-9.383-8.34a45.57 45.57 0 0 1-2.966 3.7c4.775 4.968 9.969 8.714 11.002 9.439l1.337.935 1.342-.935c1.998-1.401 19.562-14.002 19.562-25.154.008-6.946-4.39-11.799-10.695-11.799z"/><path d="M38.614 22.911c-1.041 0-1.776.336-2.318.825.537 1.085.836 2.421.836 3.972 0 6.798-10.7 16.212-16.231 20.354-5.531-4.142-16.23-13.556-16.23-20.354 0-4.397 2.31-7.13 6.031-7.13 2.771 0 5.882 1.539 8.539 4.226l1.659 1.674 1.658-1.674c1.297-1.308 2.691-2.324 4.111-3.04.953-2.42 2.488-4.431 4.466-5.853l-.035-.002c-3.455 0-7.012 1.436-10.201 4.085-3.188-2.649-6.75-4.085-10.198-4.085C4.402 15.908 0 20.761 0 27.71c0 11.15 17.561 23.755 19.562 25.156l1.338.936 1.339-.936c2.001-1.4 19.563-14.006 19.563-25.156 0-1.521-.239-2.922-.647-4.204-.881-.354-1.745-.595-2.541-.595z"/></svg>