<svg xmlns="http://www.w3.org/2000/svg" width="31.936" height="31.936" viewBox="0 0 31.936 31.936"><path d="M8.32 6.471a2.833 2.833 0 0 0-2.833 2.833v19.797a2.834 2.834 0 0 0 2.833 2.834h15.294a2.836 2.836 0 0 0 2.834-2.834V9.304a2.833 2.833 0 0 0-2.834-2.833H8.32zm14.894 19.457c0 .908-.738 1.646-1.646 1.646h-11.2a1.645 1.645 0 0 1-1.645-1.646V12.62c0-.91.736-1.646 1.645-1.646h11.198c.909 0 1.646.737 1.646 1.646v13.308h.002z"/><path d="M12.298 21.823l.644-1.234v2.853c0 .348.217.666.526.82.554.271 1.554.635 2.912.635 1.218 0 2.116-.293 2.673-.551.393-.181.643-.572.643-1v-2.757l.035.063.611 1.141c1.02-.92 1.646-2.186 1.646-3.584 0-2.808-2.542-5.086-5.677-5.086-3.137 0-5.688 2.278-5.688 5.086.003 1.414.636 2.693 1.675 3.614zm4.724-2.996c0-.175.154-.257.33-.257h2.027c.176 0 .315.082.315.257v.001c0 .878-.604 1.594-1.339 1.594-.731 0-1.333-.717-1.333-1.595zm-.707 1.474c.098 0 .191.041.257.114l.797.897-.387.342-.442-.224a.471.471 0 0 0-.438.002l-.421.221-.391-.338.771-.896a.335.335 0 0 1 .254-.118zm-3.23-1.474c0-.175.116-.257.291-.257h2.029c.176 0 .351.082.351.258 0 .878-.602 1.594-1.337 1.594-.733 0-1.335-.717-1.334-1.595zM20.964 1.646c0-.91-.738-1.646-1.646-1.646H12.62c-.909 0-1.645.737-1.645 1.646v3.841h9.99V1.646h-.001z"/></svg>