<?xml version="1.0" encoding="iso-8859-1"?>
<!-- Generator: Adobe Illustrator 16.0.0, SVG Export Plug-In . SVG Version: 6.00 Build 0)  -->
<!DOCTYPE svg PUBLIC "-//W3C//DTD SVG 1.1//EN" "http://www.w3.org/Graphics/SVG/1.1/DTD/svg11.dtd">
<svg version="1.1" id="Capa_1" xmlns="http://www.w3.org/2000/svg" xmlns:xlink="http://www.w3.org/1999/xlink" x="0px" y="0px"
	 width="61.938px" height="61.938px" viewBox="0 0 61.938 61.938" style="enable-background:new 0 0 61.938 61.938;"
	 xml:space="preserve">
<g>
	<path d="M51.514,23.822l-10.78-17.14v8.897C40.551,15.243,30.971,0,30.971,0s-9.58,15.243-9.762,15.58V6.682l-10.782,17.14
		c-0.283,0.448-2.771,4.553-2.771,9.762l0.348,7.968c0.374,2.017,1.023,4.03,1.83,5.86c0.508,1.147,1.24,2.146,2.108,2.99
		c-0.568,1.959-0.306,3.951,0.89,5.977c2.184,3.688,5.055,5.559,8.529,5.559c1.891,0,3.498-0.577,4.917-1.086
		c1.418-0.508,2.642-0.946,4.269-0.946c1.649,0,2.963,0.458,4.354,0.946c1.424,0.498,3.034,1.061,4.904,1.061l0,0
		c3.526,0,6.39-1.897,8.504-5.625c1.095-1.92,1.424-3.8,1.045-5.629c1.021-0.995,1.839-2.218,2.345-3.613
		c0.785-2.167,1.245-4.052,1.501-5.73l1.079-7.73C54.282,28.375,51.796,24.271,51.514,23.822z M35.399,18.009
		c0,0,1.875,2.976,1.875,6.654l-1.875-0.5V18.009z M35.345,26.1c4.059-0.062,4.567,6.364,4.154,8.618
		c-0.377,2.076-2.044,4.672-4.154,4.672c-2.109,0-3.825-1.716-3.825-3.828S31.29,26.163,35.345,26.1z M26.542,18.009v6.222
		l-1.874,0.432C24.668,20.984,26.542,18.009,26.542,18.009z M25.83,26.1c4.399-0.406,3.824,7.354,3.824,9.467
		c0,2.109-1.712,3.827-3.824,3.827c-2.111,0-2.969-1.902-3.825-3.827C20.953,33.212,21.432,26.506,25.83,26.1z M15.37,26.931v6.03
		l-1.873,0.623C13.499,29.907,15.37,26.931,15.37,26.931z M15.173,45.047c-0.85-1.931-3.118-8.755-0.321-10.204
		c2.791-1.45,6.47,5.183,7.317,7.112c0.855,1.928-0.018,4.193-1.948,5.044C18.287,47.853,16.031,46.977,15.173,45.047z
		 M43.237,53.399c-3.171,5.596-5.68,0.666-12.687,0.666s-9.346,4.986-12.692-0.666c-1.75-2.954,4.039-5.265,5.897-7.003
		c2.327-2.171,2.898-6.117,6.792-6.117c3.711,0,4.505,3.882,6.827,5.907C39.438,47.982,45.119,50.097,43.237,53.399z M46.214,45.051
		c-0.723,1.984-2.917,3.011-4.899,2.288c-1.986-0.721-3.864-3.552-3.146-5.536c0.319-0.867,2.354-0.997,3.526-2.505
		c1.501-1.923,2.327-5.118,4.161-4.443C49.134,36.05,46.933,43.071,46.214,45.051z M46.572,32.961v-6.03
		c0,0,1.873,2.976,1.873,6.653L46.572,32.961z"/>
</g>
</svg>
