<?xml version="1.0" encoding="utf-8"?>

<!-- The icon can be used freely in both personal and commercial projects with no attribution required, but always appreciated. 
You may NOT sub-license, resell, rent, redistribute or otherwise transfer the icon without express written permission from iconmonstr.com -->

<!DOCTYPE svg PUBLIC "-//W3C//DTD SVG 1.1//EN" "http://www.w3.org/Graphics/SVG/1.1/DTD/svg11.dtd">
<svg version="1.1" xmlns="http://www.w3.org/2000/svg" xmlns:xlink="http://www.w3.org/1999/xlink" x="0px" y="0px"
	 width="512px" height="512px" viewBox="0 0 512 512" enable-background="new 0 0 512 512" xml:space="preserve">
<path id="crosshair-7-icon" d="M420.8,236c-9.078-75.747-69.062-135.722-144.8-144.8V50h-40v41.2
	c-75.747,9.078-135.722,69.062-144.799,144.8H50v40h41.2c9.078,75.747,69.062,135.722,144.8,144.8V462h40v-41.2
	c75.746-9.078,135.722-69.062,144.799-144.8H462v-40H420.8z M380.426,235.931h-34.17c-7.76-34.921-35.324-62.467-70.256-70.2
	v-34.195C328.23,139.919,371.545,180.862,380.426,235.931z M256,318.455c-34.492,0-62.456-27.962-62.456-62.455
	s27.964-62.455,62.456-62.455c34.493,0,62.456,27.962,62.456,62.455S290.493,318.455,256,318.455z M235.997,131.562
	c0.001,0,0.002,0,0.003,0v34.169c-34.932,7.733-62.496,35.279-70.256,70.2h-34.198C139.958,183.71,180.919,140.415,235.997,131.562z
	 M131.562,276.002c-0.004-0.023-0.007-0.048-0.011-0.071h34.163c7.718,34.986,35.309,62.596,70.286,70.339v34.194
	C183.748,372.077,140.419,331.104,131.562,276.002z M276.002,380.438c-0.001,0-0.001,0-0.002,0V346.27
	c34.978-7.743,62.568-35.353,70.286-70.339h34.188C372.112,328.213,331.129,371.576,276.002,380.438z M281,256
	c0,13.807-11.193,25-25,25s-25-11.193-25-25s11.193-25,25-25S281,242.193,281,256z"/>
</svg>
