<?xml version="1.0" encoding="utf-8"?>
<!-- Generated by IcoMoon.io -->
<!DOCTYPE svg PUBLIC "-//W3C//DTD SVG 1.1//EN" "http://www.w3.org/Graphics/SVG/1.1/DTD/svg11.dtd">
<svg version="1.1" xmlns="http://www.w3.org/2000/svg" xmlns:xlink="http://www.w3.org/1999/xlink" width="512" height="512" viewBox="0 0 512 512">
<g>
</g>
	<path d="M256.010 193.403c-32.686 0-59.075 26.378-59.075 59.065 0 32.696 26.378 59.085 59.075 59.085s59.075-26.378 59.075-59.085c0-32.686-26.389-59.065-59.075-59.065zM256.010 295.475c-23.522 0-42.998-19.476-42.998-43.018 0-23.522 19.476-42.998 42.998-42.998 23.501 0 43.018 19.477 43.018 42.998 0 23.542-19.517 43.018-43.018 43.018z" fill="#000000" />
	<path d="M414.3 198.564c-42.455-36.137-95.191-53.904-158.29-53.904-62.515 0-115.292 17.756-158.28 53.904-17.224 14.919-32.144 33.26-44.779 53.904 12.636 21.238 27.556 39.045 44.779 53.903 42.987 36.137 95.764 53.945 158.28 53.945 63.099 0 115.845-17.797 158.29-53.945 17.767-14.858 32.697-32.656 44.738-53.904-12.042-20.644-26.972-38.983-44.738-53.904zM256.010 352.839c-55.081 0-100.373-45.302-100.373-100.382 0-55.060 45.291-99.799 100.373-99.799s100.352 44.739 100.352 99.799c0 55.081-45.271 100.382-100.352 100.382z" fill="#000000" />
	<path d="M255.99 15.841c-132.638 0-240.138 107.52-240.138 240.179 0 132.598 107.499 240.138 240.138 240.138 132.629 0 240.159-107.541 240.159-240.138 0-132.659-107.53-240.179-240.159-240.179zM440.668 317.86c-49.296 44.165-111.257 65.935-184.658 65.935-72.858 0-134.768-21.781-184.699-65.935-20.060-17.776-37.827-39.598-52.153-65.403 14.316-25.201 32.092-47.022 52.153-65.382 49.93-44.165 111.841-65.956 184.699-65.956 73.4 0 135.363 21.801 184.658 65.956 20.675 18.361 37.878 40.182 52.193 65.382-14.315 25.805-31.519 47.626-52.193 65.403z" fill="#000000" />
</svg>
