<?xml version="1.0" encoding="utf-8"?>

<!-- The icon can be used freely in both personal and commercial projects with no attribution required, but always appreciated. 
You may NOT sub-license, resell, rent, redistribute or otherwise transfer the icon without express written permission from iconmonstr.com -->

<!DOCTYPE svg PUBLIC "-//W3C//DTD SVG 1.1//EN" "http://www.w3.org/Graphics/SVG/1.1/DTD/svg11.dtd">
<svg version="1.1" xmlns="http://www.w3.org/2000/svg" xmlns:xlink="http://www.w3.org/1999/xlink" x="0px" y="0px"
	 width="512px" height="512px" viewBox="0 0 512 512" enable-background="new 0 0 512 512" xml:space="preserve">
<path id="shield-21-icon" d="M256,50c-57.861,49.195-96.167,57-156.5,57c0,0,0,116.921,0,192.528c0,79,56.996,99.629,156.5,162.472
	c99.504-62.843,156.5-83.472,156.5-162.472c0-75.607,0-192.528,0-192.528C352.167,107,313.861,99.195,256,50z M158.067,348.581
	c-11.145-11.566-18.567-24.334-18.567-49.053v-41.445H256V100.867c40.768,29.345,75.684,40.771,116.5,44.536v112.68H256v156.812
	C211.745,387.728,177.041,368.271,158.067,348.581z"/>
</svg>
