<svg xmlns="http://www.w3.org/2000/svg" width="512" height="512" viewBox="0 0 512 512"><path d="M256 462c-23.033-18.656-29.834-23.545-74.82-34.987-62.568-15.914-98.453-57.195-98.453-113.252 0-31.347 12.6-60.211 27.193-99.858 16.441-44.662 7.115-58.831-10.197-76.858L84.994 121.71l84.393-71.41c8.354 8.543 20.107 24.223 41.629 24.223 21.186 0 35.535-15.243 45.189-23.688 8.721 7.87 22.953 23.688 44.781 23.688 21.23 0 32.578-14.966 41.928-24.521 18.498 16.389 1.625 1.929 84.092 71.709l-14.729 15.335c-17.312 18.027-26.639 32.196-10.197 76.858 14.598 39.659 27.193 68.519 27.193 99.858 0 56.057-35.883 97.338-98.451 113.252C285.828 438.456 279.033 443.344 256 462zM142.209 125.603c17.725 24.746 23.039 53.588 5.184 102.094-13.811 37.519-24.736 62.688-24.736 86.064 0 47.245 37.178 66.62 68.365 74.555 30.436 7.741 49.1 12.488 64.979 22.233 15.879-9.745 34.543-14.491 64.98-22.233 31.186-7.935 68.363-27.309 68.363-74.555 0-23.368-10.914-48.523-24.734-86.063-17.857-48.507-12.541-77.349 5.184-102.095l-26.902-22.763c-9.936 5.775-24.328 11.611-41.904 11.611-18.793 0-34.586-6.7-44.986-12.721-10.398 6.021-26.193 12.721-44.984 12.721-17.58 0-31.969-5.836-41.906-11.611l-26.903 22.763zm163.25 196.805l-48.74-25.624-48.744 25.624 9.311-54.276-39.434-38.44 54.494-7.918 24.373-49.383 24.373 49.383 54.496 7.918-39.436 38.44 9.307 54.276z"/></svg>