<svg xmlns="http://www.w3.org/2000/svg" viewBox="0 0 23.305 23.305"><g fill="#010002"><path d="M11.654 0C5.218 0 .002 5.218.002 11.652c0 6.437 5.216 11.653 11.651 11.653 6.437 0 11.651-5.218 11.651-11.653C23.304 5.218 18.088 0 11.654 0zm1 21.374v-2.521h-2.005v2.521a9.767 9.767 0 0 1-8.729-8.97h4.032v-2.007H1.969A9.77 9.77 0 0 1 10.65 1.93v1.791h2.005v-1.79a9.766 9.766 0 0 1 8.682 8.467h-3.982v2.007h4.034c-.363 4.712-4.057 8.493-8.735 8.969z"/><path d="M11.651 10.374a2.935 2.935 0 0 0 0-5.868 2.93 2.93 0 0 0-2.928 2.936 2.929 2.929 0 0 0 2.928 2.932zM14.003 10.851H9.302c-.84 0-1.528.771-1.528 1.718v4.723c0 .051.025.1.028.152h7.699c.005-.054.029-.103.029-.152v-4.723c.001-.946-.685-1.718-1.527-1.718z"/></g></svg>