<svg xmlns="http://www.w3.org/2000/svg" width="404.308" height="404.309" viewBox="0 0 404.308 404.309"><path d="M335.826 0c-22.715 0-41.13 18.416-41.13 41.131 0 4.264.649 8.375 1.853 12.24-31.169 13.021-59.062 32.813-83.901 56.148 11.392 4.254 19.506 15.232 19.506 28.107 0 16.567-13.431 29.998-29.998 29.998-12.106 0-22.53-7.176-27.271-17.502a545.088 545.088 0 0 0-17.155 22.018c-27.209 36.853-50.187 76.785-69.829 118.132-8.915 18.766-17.162 37.864-24.54 57.289-3.008 7.92-6.262 17.598-8.947 26.748h-27.06v30h308.473v-30H304.2c-18.679-52.066-25.239-112.726-24.513-166.895.624-46.501 9.307-93.054 32.111-132.913a40.93 40.93 0 0 0 24.027 7.758c22.715 0 41.13-18.414 41.13-41.129C376.956 18.415 358.542 0 335.826 0zM149.789 358.113c-16.567 0-29.998-13.43-29.998-29.998 0-16.566 13.431-29.998 29.998-29.998s29.998 13.432 29.998 29.998c0 16.569-13.43 29.998-29.998 29.998zm97.495-73.496c-16.567 0-29.999-13.43-29.999-29.998 0-16.566 13.432-29.998 29.999-29.998 16.568 0 29.998 13.432 29.998 29.998 0 16.569-13.43 29.998-29.998 29.998z"/></svg>