<?xml version="1.0" encoding="utf-8"?>

<!-- The icon can be used freely in both personal and commercial projects with no attribution required, but always appreciated. 
You may NOT sub-license, resell, rent, redistribute or otherwise transfer the icon without express written permission from iconmonstr.com -->

<!DOCTYPE svg PUBLIC "-//W3C//DTD SVG 1.1//EN" "http://www.w3.org/Graphics/SVG/1.1/DTD/svg11.dtd">
<svg version="1.1" xmlns="http://www.w3.org/2000/svg" xmlns:xlink="http://www.w3.org/1999/xlink" x="0px" y="0px"
	 width="512px" height="512px" viewBox="0 0 512 512" enable-background="new 0 0 512 512" xml:space="preserve">
<path id="police-badge-4-icon" d="M256,462c-23.033-18.656-29.834-23.545-74.82-34.987c-62.568-15.914-98.453-57.195-98.453-113.252
	c0-31.347,12.6-60.211,27.193-99.858c16.441-44.662,7.115-58.831-10.197-76.858l-14.729-15.335l84.393-71.41
	c8.354,8.543,20.107,24.223,41.629,24.223c21.186,0,35.535-15.243,45.189-23.688c8.721,7.87,22.953,23.688,44.781,23.688
	c21.23,0,32.578-14.966,41.928-24.521c18.498,16.389,1.625,1.929,84.092,71.709l-14.729,15.335
	c-17.312,18.027-26.639,32.196-10.197,76.858c14.598,39.659,27.193,68.519,27.193,99.858c0,56.057-35.883,97.338-98.451,113.252
	C285.828,438.456,279.033,443.344,256,462z M142.209,125.603c17.725,24.746,23.039,53.588,5.184,102.094
	c-13.811,37.519-24.736,62.688-24.736,86.064c0,47.245,37.178,66.62,68.365,74.555c30.436,7.741,49.1,12.488,64.979,22.233
	c15.879-9.745,34.543-14.491,64.98-22.233c31.186-7.935,68.363-27.309,68.363-74.555c0-23.368-10.914-48.523-24.734-86.063
	c-17.857-48.507-12.541-77.349,5.184-102.095l-26.902-22.763c-9.936,5.775-24.328,11.611-41.904,11.611
	c-18.793,0-34.586-6.7-44.986-12.721c-10.398,6.021-26.193,12.721-44.984,12.721c-17.58,0-31.969-5.836-41.906-11.611
	L142.209,125.603z M305.459,322.408l-48.74-25.624l-48.744,25.624l9.311-54.276l-39.434-38.44l54.494-7.918l24.373-49.383
	l24.373,49.383l54.496,7.918l-39.436,38.44L305.459,322.408z"/>
</svg>
