<svg xmlns="http://www.w3.org/2000/svg" viewBox="0 0 612 612"><path d="M189.45 351.607l42.016-23.823-7.402-26.786c-63.74-6.041-113.602-59.725-113.568-125.054.036-69.541 56.021-125.496 125.562-125.496 23.216 0 44.958 6.301 63.614 17.287 6.392 3.764 13.073-4.473 8.089-9.966C275.385 22.089 228.569-.245 176.537.002 79.864.461 1.264 79.553 1.381 176.228c.118 97.107 78.875 175.792 176.01 175.792 4.054 0 8.073-.143 12.059-.413zM433.682 235.291l-28.847-50.876c-2.488-4.389-6.894-6.583-11.3-6.583s-8.812 2.195-11.3 6.583l-28.847 50.876c13.042-3.275 26.47-4.933 40.146-4.933 13.677-.001 27.106 1.658 40.148 4.933zM353.389 554.541l28.847 50.876c2.488 4.389 6.894 6.583 11.3 6.583 4.406 0 8.812-2.195 11.3-6.583l28.847-50.876c-13.042 3.275-26.47 4.933-40.146 4.933-13.679 0-27.107-1.658-40.148-4.933zM183.034 383.617c-8.777 4.977-8.777 17.623 0 22.599l50.877 28.847c-3.275-13.042-4.933-26.47-4.933-40.147s1.658-27.104 4.933-40.146l-50.877 28.847zM604.037 383.617L553.16 354.77c3.275 13.042 4.933 26.47 4.933 40.146 0 13.677-1.658 27.105-4.933 40.147l50.877-28.847c8.777-4.977 8.777-17.623 0-22.599zM537.912 237.595c-1.148 0-2.328.155-3.52.484l-56.389 15.582a164.504 164.504 0 0 1 31.892 24.895 164.427 164.427 0 0 1 24.895 31.892l15.582-56.389c2.358-8.534-4.238-16.464-12.46-16.464zM249.158 552.237c1.148 0 2.329-.155 3.52-.484l56.389-15.582a164.466 164.466 0 0 1-31.892-24.895 164.534 164.534 0 0 1-24.895-31.892l-15.582 56.389c-2.358 8.533 4.237 16.464 12.46 16.464z"/><path d="M249.158 237.595c-8.222 0-14.818 7.93-12.46 16.464l12.925 46.774 2.656 9.614a163.225 163.225 0 0 1 7.251-11.077 165.38 165.38 0 0 1 17.645-20.815 164.496 164.496 0 0 1 31.892-24.895l-56.389-15.582a13.242 13.242 0 0 0-3.52-.483zM537.912 552.237c8.222 0 14.818-7.931 12.46-16.464l-15.582-56.389a164.466 164.466 0 0 1-24.895 31.892 164.435 164.435 0 0 1-31.892 24.895l56.389 15.582c1.192.33 2.372.484 3.52.484zM333.281 266.499a141.272 141.272 0 0 0-7.116 3.586 142.228 142.228 0 0 0-23.683 16.101 142.717 142.717 0 0 0-30.016 34.83 141.443 141.443 0 0 0-2.884 4.948 140.945 140.945 0 0 0-4.461 8.697 140.82 140.82 0 0 0-4.995 12.032 141.407 141.407 0 0 0-7.862 35.728 143.41 143.41 0 0 0-.554 12.495c0 4.212.194 8.377.554 12.495a141.54 141.54 0 0 0 3.399 20.851 140.5 140.5 0 0 0 4.463 14.877 140.82 140.82 0 0 0 4.995 12.032 141.266 141.266 0 0 0 19.686 30.798 142.648 142.648 0 0 0 34.83 30.016 141.4 141.4 0 0 0 13.645 7.346 141.103 141.103 0 0 0 12.03 4.995 141.407 141.407 0 0 0 35.729 7.862c4.118.359 8.284.554 12.495.554s8.378-.195 12.496-.555a141.394 141.394 0 0 0 35.728-7.862 140.456 140.456 0 0 0 12.03-4.995 141.282 141.282 0 0 0 13.645-7.346 142.717 142.717 0 0 0 47.17-47.171 141.824 141.824 0 0 0 7.346-13.644 141.237 141.237 0 0 0 4.995-12.03 141.415 141.415 0 0 0 7.862-35.728c.359-4.118.554-8.284.554-12.495 0-4.212-.195-8.377-.554-12.495a141.658 141.658 0 0 0-3.399-20.85 140.587 140.587 0 0 0-4.463-14.878 140.779 140.779 0 0 0-4.995-12.03 141.266 141.266 0 0 0-19.686-30.799 142.717 142.717 0 0 0-34.83-30.016 141.4 141.4 0 0 0-13.645-7.346 141.103 141.103 0 0 0-12.03-4.995 141.394 141.394 0 0 0-35.728-7.862c-4.118-.36-8.284-.554-12.496-.554-4.211 0-8.377.194-12.495.554a141.54 141.54 0 0 0-20.851 3.399 140.587 140.587 0 0 0-14.878 4.463 140.509 140.509 0 0 0-12.031 4.992z"/></svg>