<svg xmlns="http://www.w3.org/2000/svg" viewBox="0 0 612.001 612.001"><path d="M306 149.341c-86.382 0-156.661 70.278-156.661 156.661 0 86.382 70.278 156.66 156.661 156.66s156.66-70.278 156.66-156.66c0-86.384-70.278-156.661-156.66-156.661zM274.194 117.278h63.612c5.032 0 9.356-2.101 11.863-5.763 2.508-3.662 2.9-8.453 1.079-13.146L315.749 8.257C312.96 1.073 308.444.001 306 .001s-6.96 1.073-9.749 8.255l-35 90.114c-1.821 4.692-1.427 9.482 1.079 13.145 2.507 3.663 6.832 5.763 11.864 5.763zM337.806 494.723h-63.612c-5.032 0-9.357 2.102-11.863 5.764-2.506 3.663-2.9 8.453-1.079 13.145l34.999 90.114C299.04 610.928 303.556 612 306 612c2.444 0 6.96-1.072 9.749-8.254l34.999-90.115c1.821-4.69 1.429-9.48-1.079-13.144-2.507-3.662-6.831-5.764-11.863-5.764zM127.54 190.824c2.412 5.477 7.028 8.746 12.348 8.746 3.644 0 7.257-1.608 10.174-4.526l44.981-44.98c3.558-3.558 5.13-8.102 4.312-12.466-.819-4.362-3.928-8.028-8.532-10.056l-88.467-38.973c-2.233-.983-4.336-1.482-6.25-1.482-3.201 0-5.959 1.415-7.568 3.882-1.357 2.081-2.454 5.747.031 11.389l38.971 88.466zM484.46 421.178c-2.412-5.477-7.027-8.746-12.346-8.746-3.645 0-7.259 1.609-10.177 4.527l-44.981 44.98c-3.558 3.559-5.13 8.104-4.312 12.466.818 4.362 3.929 8.028 8.532 10.055l88.466 38.974c2.233.983 4.336 1.482 6.25 1.482 3.201 0 5.959-1.417 7.568-3.882 1.358-2.083 2.455-5.748-.03-11.389l-38.97-88.467zM461.937 195.044c2.918 2.918 6.532 4.526 10.176 4.526 5.319 0 9.934-3.269 12.348-8.746l38.972-88.465c2.486-5.643 1.389-9.308.031-11.389-1.609-2.467-4.367-3.882-7.568-3.882-1.914 0-4.017.499-6.251 1.483l-88.466 38.97c-4.604 2.029-7.715 5.694-8.532 10.057-.818 4.363.754 8.908 4.312 12.466l44.978 44.98zM150.063 416.959c-2.918-2.918-6.532-4.527-10.177-4.527-5.319 0-9.934 3.269-12.346 8.746l-38.972 88.465c-2.486 5.643-1.389 9.308-.031 11.39 1.609 2.466 4.368 3.882 7.568 3.882 1.914 0 4.017-.499 6.251-1.484l88.466-38.972c4.604-2.028 7.715-5.694 8.532-10.056.818-4.362-.753-8.907-4.312-12.466l-44.979-44.978zM603.745 296.251l-90.111-34.996c-1.942-.755-3.896-1.137-5.806-1.137-7.593 0-13.104 5.921-13.104 14.078l.001 63.613c0 8.157 5.511 14.078 13.104 14.078 1.912 0 3.866-.382 5.806-1.136l90.112-34.999c7.182-2.79 8.254-7.306 8.254-9.751 0-2.443-1.075-6.961-8.256-9.75zM104.173 351.886c7.594 0 13.106-5.921 13.106-14.078v-63.613c0-8.157-5.511-14.078-13.106-14.078-1.912 0-3.864.382-5.805 1.136L8.255 296.251C1.073 299.04 0 303.556 0 306.001c0 2.444 1.072 6.96 8.255 9.752l90.111 34.996c1.942.754 3.895 1.137 5.807 1.137z"/></svg>