<svg xmlns="http://www.w3.org/2000/svg" width="28.968" height="28.968" viewBox="0 0 28.968 28.968"><path d="M24.571 16.893l-6.955-1-2.728 3.268-2.817-3.268-7.523 1-.527 12.075h20.926zM14.761 14.782a7.392 7.392 0 0 0 0-14.782c-4.082 0-7.39 3.31-7.39 7.391s3.308 7.391 7.39 7.391zm1.062-3.12h-2.43V9.348h2.43v2.314zm-4.019-6.643c.125-.354.317-.671.573-.952a2.88 2.88 0 0 1 .987-.684c.401-.174.89-.263 1.466-.263.569 0 1.048.078 1.438.229.392.153.705.346.946.583.242.237.418.5.531.783.112.286.176.555.192.813 0 .358-.047.647-.142.869a1.679 1.679 0 0 1-.367.557c-.15.148-.321.269-.508.367-.188.099-.379.196-.572.297a2.16 2.16 0 0 0-.327.212.92.92 0 0 0-.199.221.831.831 0 0 0-.099.27c-.02.101-.029.217-.029.349h-2.16a6.578 6.578 0 0 1-.013-.443c0-.187.023-.379.07-.573.047-.193.13-.385.246-.572.116-.188.287-.343.513-.468.094-.047.203-.096.328-.151a4.12 4.12 0 0 0 .357-.182 1.09 1.09 0 0 0 .284-.241.502.502 0 0 0 .117-.336c0-.398-.226-.596-.678-.596-.28 0-.479.1-.596.302a1.15 1.15 0 0 0-.138.69h-2.441c.022-.367.097-.725.221-1.081z"/></svg>