<svg xmlns="http://www.w3.org/2000/svg" width="310.42" height="310.42" viewBox="0 0 310.42 310.42"><path d="M273.587 214.965c49.11-49.111 49.109-129.021 0-178.132-49.111-49.111-129.021-49.111-178.131 0C53.792 78.497 47.482 140.462 76.51 188.85c0 0 2.085 3.496-.731 6.312l-64.262 64.263c-12.791 12.79-15.837 30.675-4.494 42.02l1.953 1.951c11.344 11.345 29.23 8.301 42.02-4.49 0 0 48.096-48.097 64.129-64.128 2.95-2.951 6.447-.866 6.447-.866 48.386 29.026 110.351 22.717 152.015-18.947zM118.712 191.71c-36.288-36.288-36.287-95.332 0-131.62 36.288-36.287 95.332-36.288 131.619 0 36.288 36.287 36.288 95.332 0 131.62-36.288 36.287-95.332 36.287-131.619 0z"/><path d="M184.908 82.43c-38.02 0-68.841 37.92-68.841 44.115 0 6.012 30.82 44.114 68.841 44.114 38.02 0 68.841-37.93 68.841-44.114 0-6.174-30.82-44.115-68.841-44.115zm0 75.511c-17.341 0-31.397-14.058-31.397-31.397s14.057-31.397 31.397-31.397c17.34 0 31.396 14.057 31.396 31.397s-14.056 31.397-31.396 31.397z"/><circle cx="184.908" cy="126.545" r="15.994"/></svg>