<svg xmlns="http://www.w3.org/2000/svg" width="456.377" height="456.377" viewBox="0 0 456.377 456.377"><path d="M228.189 266.236c124.731 0 149.694-52.344 149.504-52.408C359.611-5.765 249.896 117.87 228.189 117.87c-21.708 0-131.422-123.634-149.505 95.958-.188.065 24.775 52.408 149.505 52.408z"/><path d="M402.264 223.72c-8.338 16.843-25.565 31.903-50.491 43.748-33.226 15.787-77.113 24.479-123.583 24.479-46.469 0-90.358-8.692-123.582-24.479-24.926-11.845-42.155-26.904-50.493-43.748C20.365 239.546 0 260.03 0 282.409c.001 50.137 102.163 90.779 228.189 90.779s228.188-40.643 228.188-90.779c0-22.378-20.363-42.865-54.113-58.689z"/></svg>