<svg xmlns="http://www.w3.org/2000/svg" width="611.999" height="611.999" viewBox="0 0 611.999 611.999"><path d="M607.956 246.851l-29.398-41.971c-.181.127-.352.267-.531.391-33.277 23.318-79.154 15.23-102.466-18.05-23.312-33.274-15.228-79.154 18.053-102.464.181-.127.366-.238.547-.362L464.764 42.43c-7.08-10.111-21.022-12.565-31.134-5.485l-116.275 81.45 25.449 36.333-27.59 19.311-25.441-36.324L9.536 334.021c-10.117 7.074-12.574 21.017-5.485 31.128L147.243 569.57c7.08 10.111 21.023 12.565 31.127 5.479l280.235-196.295-25.131-35.881 27.588-19.322 25.127 35.884 116.282-81.453c10.102-7.087 12.565-21.024 5.485-31.131zm-273.122-46.125l27.587-19.319 33.026 47.137-27.6 19.325-33.013-47.143zm80.839 116.732l-30.461-43.479L412.8 254.66l30.457 43.479-27.584 19.319z"/></svg>