<svg xmlns="http://www.w3.org/2000/svg" viewBox="0 0 20.434 20.434"><g fill="#030104"><path d="M18.982 5.155c-1.022 1.022-2.271.613-3.294-.409-1.021-1.022-1.431-2.271-.408-3.293L13.827 0l-2.939 2.94.396.397-.435.435-.397-.397L0 13.826l1.453 1.454c1.022-1.022 2.27-.615 3.292.407s1.431 2.271.409 3.293l1.454 1.454 2.079-2.079c-.001-.021-.005-.042-.005-.063a.897.897 0 0 1 .29-.64 60.101 60.101 0 0 0 1.766-1.683 56.833 56.833 0 0 0-1.766-1.683.894.894 0 0 1-.027-1.289l1.375-1.378a.898.898 0 0 1 .63-.261.906.906 0 0 1 .652.281 79.744 79.744 0 0 0 1.688 1.751 77.251 77.251 0 0 0 1.688-1.751.897.897 0 0 1 .637-.281h.001c.021 0 .039.004.061.006l1.382-1.383-.114-.113.436-.436.113.114 2.94-2.94-1.452-1.451zm-6.391.359l-.871-.871.435-.436.872.871-.436.436zm1.742 1.742l-.871-.871.436-.436.871.872-.436.435zm1.741 1.742l-.87-.871.436-.435.87.871-.436.435z"/><path d="M17.204 13.818a.32.32 0 0 0 .008-.462l-1.378-1.377a.32.32 0 0 0-.461.007c-.817.871-1.737 1.817-2.105 2.155-.369-.338-1.287-1.284-2.104-2.155a.32.32 0 0 0-.461-.007l-1.376 1.378a.318.318 0 0 0 .01.462c.887.815 1.854 1.745 2.167 2.104-.313.359-1.281 1.288-2.167 2.103a.323.323 0 0 0-.009.464l1.376 1.374a.337.337 0 0 0 .233.095.322.322 0 0 0 .229-.103c.817-.876 1.74-1.83 2.105-2.159.364.329 1.287 1.283 2.104 2.159a.326.326 0 0 0 .229.103h.005a.328.328 0 0 0 .228-.094l1.378-1.375a.324.324 0 0 0 .095-.233.324.324 0 0 0-.103-.23c-.876-.815-1.831-1.738-2.162-2.104.327-.365 1.282-1.289 2.159-2.105z"/></g></svg>