<svg xmlns="http://www.w3.org/2000/svg" width="61.938" height="61.938" viewBox="0 0 61.938 61.938"><path d="M51.514 23.822l-10.78-17.14v8.897C40.551 15.243 30.971 0 30.971 0s-9.58 15.243-9.762 15.58V6.682l-10.782 17.14c-.283.448-2.771 4.553-2.771 9.762l.348 7.968a26.87 26.87 0 0 0 1.83 5.86 9.603 9.603 0 0 0 2.108 2.99c-.568 1.959-.306 3.951.89 5.977 2.184 3.688 5.055 5.559 8.529 5.559 1.891 0 3.498-.577 4.917-1.086 1.418-.508 2.642-.946 4.269-.946 1.649 0 2.963.458 4.354.946 1.424.498 3.034 1.061 4.904 1.061 3.526 0 6.39-1.897 8.504-5.625 1.095-1.92 1.424-3.8 1.045-5.629a9.639 9.639 0 0 0 2.345-3.613c.785-2.167 1.245-4.052 1.501-5.73l1.079-7.73c.003-5.211-2.483-9.315-2.765-9.764zm-16.115-5.813s1.875 2.976 1.875 6.654l-1.875-.5v-6.154zm-.054 8.091c4.059-.062 4.567 6.364 4.154 8.618-.377 2.076-2.044 4.672-4.154 4.672-2.109 0-3.825-1.716-3.825-3.828s-.23-9.399 3.825-9.462zm-8.803-8.091v6.222l-1.874.432c0-3.679 1.874-6.654 1.874-6.654zM25.83 26.1c4.399-.406 3.824 7.354 3.824 9.467a3.828 3.828 0 0 1-3.824 3.827c-2.111 0-2.969-1.902-3.825-3.827-1.052-2.355-.573-9.061 3.825-9.467zm-10.46.831v6.03l-1.873.623c.002-3.677 1.873-6.653 1.873-6.653zm-.197 18.116c-.85-1.931-3.118-8.755-.321-10.204 2.791-1.45 6.47 5.183 7.317 7.112a3.824 3.824 0 1 1-6.996 3.092zm28.064 8.352c-3.171 5.596-5.68.666-12.687.666s-9.346 4.986-12.692-.666c-1.75-2.954 4.039-5.265 5.897-7.003 2.327-2.171 2.898-6.117 6.792-6.117 3.711 0 4.505 3.882 6.827 5.907 2.064 1.796 7.745 3.911 5.863 7.213zm2.977-8.348a3.824 3.824 0 0 1-4.899 2.288c-1.986-.721-3.864-3.552-3.146-5.536.319-.867 2.354-.997 3.526-2.505 1.501-1.923 2.327-5.118 4.161-4.443 3.278 1.195 1.077 8.216.358 10.196zm.358-12.09v-6.03s1.873 2.976 1.873 6.653l-1.873-.623z"/></svg>