<svg xmlns="http://www.w3.org/2000/svg" width="233.269" height="233.268" viewBox="0 0 233.269 233.268"><path d="M149.667 107.641V81.33h6.606a9.176 9.176 0 0 0 0-18.351H76.994a9.177 9.177 0 0 0 0 18.351h6.607v26.311c-20.906 11.831-34.118 34.171-34.118 58.478 0 37.028 30.124 67.149 67.151 67.149s67.151-30.123 67.151-67.149c0-24.307-13.212-46.647-34.118-58.478zm-50.444 72.38a6.747 6.747 0 1 1 0-13.495 6.747 6.747 0 0 1 0 13.495zm25.698-7.495a3 3 0 0 1 0-5.999 3 3 0 0 1 0 5.999zm10.99 18.909a6.747 6.747 0 1 1 .002-13.494 6.747 6.747 0 0 1-.002 13.494zm27.337-38.539a18.67 18.67 0 0 0-13.938 6.227c-2.237-7.832-9.443-13.567-17.994-13.567-6.693 0-12.562 3.517-15.872 8.798a18.66 18.66 0 0 0-7.252-1.458c-3.713 0-7.17 1.086-10.08 2.95-3.084-6.103-9.407-10.291-16.713-10.291a18.635 18.635 0 0 0-10.316 3.102c4.534-11.797 13.563-21.646 25.475-27.031l5.396-2.439V81.33h29.363v37.855l5.396 2.439c13.314 6.02 23.026 17.617 26.885 31.279-.118 0-.234-.007-.35-.007zM114.767 37.152c-.653-1.082-1.451-2.071-2.223-3.028a78.297 78.297 0 0 1-.656-.818c-1.578-2.002-2.621-3.876-3.187-5.73-1.225-4.006-.547-8.637 2.131-14.574 1.854-4.111 4.203-7.97 6.449-11.568a.938.938 0 0 0-1.117-1.377c-3.795 1.387-7.797 4.282-11.269 8.151-3.696 4.119-5.985 8.776-6.799 13.843-.818 5.094.586 10.644 3.853 15.227.913 1.282 1.989 2.395 3.029 3.471.693.715 1.408 1.456 2.05 2.223 1.466 1.75 2.479 3.215 3.283 4.745 2.118 4.029.508 8.731-1.705 11.789a.936.936 0 0 0 1.008 1.453c4.438-1.22 8.18-5.807 8.706-10.67.31-2.865.002-5.515-.914-7.876-.654-1.687-1.494-3.358-2.639-5.261zM133.042 37.071c-.339-.874-.771-1.737-1.363-2.722-.355-.587-.785-1.118-1.203-1.638l-.271-.338c-.691-.878-1.145-1.685-1.383-2.468-.521-1.708-.206-3.742.995-6.403.88-1.95 2.004-3.797 3.081-5.522a1.455 1.455 0 0 0-.104-1.69 1.486 1.486 0 0 0-1.633-.451c-2.002.732-4.096 2.24-5.896 4.246-1.934 2.154-3.131 4.597-3.559 7.26-.439 2.742.309 5.717 2.051 8.164.488.687 1.041 1.256 1.573 1.808.321.332.653.674.952 1.031.667.796 1.124 1.455 1.482 2.137.82 1.56.146 3.449-.754 4.695a1.457 1.457 0 0 0 1.563 2.261c2.579-.709 4.671-3.258 4.976-6.06.169-1.559-.001-3.009-.507-4.31z"/></svg>