<?xml version="1.0" encoding="iso-8859-1"?>
<!-- Generator: Adobe Illustrator 18.1.1, SVG Export Plug-In . SVG Version: 6.00 Build 0)  -->
<svg version="1.1" id="Capa_1" xmlns="http://www.w3.org/2000/svg" xmlns:xlink="http://www.w3.org/1999/xlink" x="0px" y="0px"
	 viewBox="0 0 24.125 24.125" style="enable-background:new 0 0 24.125 24.125;" xml:space="preserve">
<g>
	<path style="fill:#030104;" d="M9.043,13.852l2.582,1.728c-0.622,4.832-6.143,8.545-6.143,8.545l-2.034-1.898L9.043,13.852z
		 M20.677,0l-0.039,0.584c-0.674,10.17-5.928,15.016-5.982,15.065l-0.143,0.129l-4.956-3.31l6.442-8.994
		c0.361-0.566,1.615-2.461,2.299-2.597c0.18-0.035,0.343,0.028,0.445,0.174c0.017,0.021,0.059,0.082,0.25,0.044
		c0.418-0.083,1.032-0.545,1.234-0.716L20.677,0z M19.887,1.234c-0.252,0.154-0.538,0.298-0.798,0.349
		c-0.402,0.081-0.619-0.081-0.723-0.209c-0.355,0.13-1.277,1.315-1.955,2.379l-6.153,8.587l4.202,2.806
		c0.488-0.494,2.19-2.374,3.617-5.707L18.05,9.398c0,0,0.938-3.564-0.174-3.85c-1.112-0.285-0.955-3.313,0.328-2.598
		C19.203,3.508,19.708,1.952,19.887,1.234z M8.595,13.225l4.081,2.724l0.514-0.768l-4.082-2.725L8.595,13.225z M18.66,10.554
		c0,0-0.471,1.026-0.375,1.507c0.096,0.479,0.465,0.813,0.822,0.741c0.359-0.072,0.572-0.52,0.477-0.999
		C19.489,11.322,18.66,10.554,18.66,10.554z M19.288,9.152c0,0-0.16,0.353-0.129,0.517c0.033,0.165,0.158,0.278,0.282,0.254
		c0.123-0.024,0.196-0.177,0.164-0.342S19.288,9.152,19.288,9.152z"/>
</g>
<g>
</g>
<g>
</g>
<g>
</g>
<g>
</g>
<g>
</g>
<g>
</g>
<g>
</g>
<g>
</g>
<g>
</g>
<g>
</g>
<g>
</g>
<g>
</g>
<g>
</g>
<g>
</g>
<g>
</g>
</svg>
