<?xml version="1.0" encoding="iso-8859-1"?>
<!-- Generator: Adobe Illustrator 16.0.0, SVG Export Plug-In . SVG Version: 6.00 Build 0)  -->
<!DOCTYPE svg PUBLIC "-//W3C//DTD SVG 1.1//EN" "http://www.w3.org/Graphics/SVG/1.1/DTD/svg11.dtd">
<svg version="1.1" id="Capa_1" xmlns="http://www.w3.org/2000/svg" xmlns:xlink="http://www.w3.org/1999/xlink" x="0px" y="0px"
	 width="31.735px" height="31.736px" viewBox="0 0 31.735 31.736" style="enable-background:new 0 0 31.735 31.736;"
	 xml:space="preserve">
<g>
	<g>
		<path d="M13.963,17.012c0-0.742-0.604-1.346-1.345-1.346c-0.743,0-1.346,0.604-1.346,1.346c0,0.74,0.602,1.346,1.346,1.346
			C13.359,18.358,13.963,17.752,13.963,17.012z"/>
		<circle cx="20.18" cy="17.011" r="1.345"/>
		<path d="M16.393,22.421c1.593,0,2.92-1.11,3.342-2.528h-6.681C13.473,21.311,14.803,22.421,16.393,22.421z"/>
		<path d="M31.735,4.968c-3.339-3.595-6.71-0.339-8.037,1.275c-2.095-1.624-4.72-2.592-7.567-2.592c-2.996,0-5.746,1.07-7.888,2.849
			C7.091,5.02,3.525,1.17,0,4.968c0,0,1.169,4.101,6.311,3.541c-1.6,2.085-2.551,4.689-2.551,7.515
			c0,6.82,5.55,12.369,12.371,12.369c6.821,0,12.37-5.549,12.37-12.369c0-2.805-0.938-5.395-2.516-7.472
			C30.652,8.769,31.735,4.968,31.735,4.968z M16.131,25.378c-5.158,0-9.355-4.197-9.355-9.354c0-0.684,0.074-1.35,0.214-1.992h5.976
			l-0.024-2.518l2.574,2.518h9.76c0.139,0.643,0.214,1.309,0.214,1.992C25.487,21.181,21.29,25.378,16.131,25.378z"/>
	</g>
</g>
<g>
</g>
<g>
</g>
<g>
</g>
<g>
</g>
<g>
</g>
<g>
</g>
<g>
</g>
<g>
</g>
<g>
</g>
<g>
</g>
<g>
</g>
<g>
</g>
<g>
</g>
<g>
</g>
<g>
</g>
</svg>
