<?xml version="1.0" encoding="iso-8859-1"?>
<!-- Generator: Adobe Illustrator 16.0.0, SVG Export Plug-In . SVG Version: 6.00 Build 0)  -->
<!DOCTYPE svg PUBLIC "-//W3C//DTD SVG 1.1//EN" "http://www.w3.org/Graphics/SVG/1.1/DTD/svg11.dtd">
<svg version="1.1" id="Capa_1" xmlns="http://www.w3.org/2000/svg" xmlns:xlink="http://www.w3.org/1999/xlink" x="0px" y="0px"
	 width="456.377px" height="456.377px" viewBox="0 0 456.377 456.377" style="enable-background:new 0 0 456.377 456.377;"
	 xml:space="preserve">
<g>
	<g>
		<g>
			<path d="M228.189,266.236c124.731,0,149.694-52.344,149.504-52.408c-18.082-219.593-127.797-95.958-149.504-95.958
				c-21.708,0-131.422-123.634-149.505,95.958C78.496,213.893,103.459,266.236,228.189,266.236z"/>
			<path d="M402.264,223.72c-8.338,16.843-25.565,31.903-50.491,43.748c-33.226,15.787-77.113,24.479-123.583,24.479
				c-46.469,0-90.358-8.692-123.582-24.479c-24.926-11.845-42.155-26.904-50.493-43.748C20.365,239.546,0,260.03,0,282.409
				c0.001,50.137,102.163,90.779,228.189,90.779s228.188-40.643,228.188-90.779C456.377,260.031,436.014,239.544,402.264,223.72z"/>
		</g>
	</g>
</g>
<g>
</g>
<g>
</g>
<g>
</g>
<g>
</g>
<g>
</g>
<g>
</g>
<g>
</g>
<g>
</g>
<g>
</g>
<g>
</g>
<g>
</g>
<g>
</g>
<g>
</g>
<g>
</g>
<g>
</g>
</svg>
