<?xml version="1.0" encoding="iso-8859-1"?>
<!-- Generator: Adobe Illustrator 17.1.0, SVG Export Plug-In . SVG Version: 6.00 Build 0)  -->
<!DOCTYPE svg PUBLIC "-//W3C//DTD SVG 1.1//EN" "http://www.w3.org/Graphics/SVG/1.1/DTD/svg11.dtd">
<svg version="1.1" id="Capa_1" xmlns="http://www.w3.org/2000/svg" xmlns:xlink="http://www.w3.org/1999/xlink" x="0px" y="0px"
	 viewBox="0 0 325.548 325.548" style="enable-background:new 0 0 325.548 325.548;" xml:space="preserve">
<g>
	<path style="fill:#231F20;" d="M324.024,158.395l-20.011-25.114c-4.121-4.559-10.23-7.446-17.046-7.446
		c-12.411,0-22.473,9.573-22.473,21.379c0,6.132,2.714,11.661,7.062,15.56v0.001c-4.348,3.899-7.062,9.427-7.062,15.559
		c0,11.807,10.062,21.378,22.473,21.378c6.815,0,12.925-2.888,17.045-7.446h0.001c0,0,19.965-25.057,20.018-25.123
		c0.946-1.204,1.516-2.719,1.516-4.369C325.548,161.119,324.976,159.6,324.024,158.395z"/>
	<path style="fill:#231F20;" d="M252.346,154.773h-20.2C227.979,79.116,165.118,18.841,88.438,18.841
		c-22.765,0-41.285,18.521-41.285,41.286s18.52,41.286,41.285,41.286c19.788,0,36.37-13.994,40.369-32.604
		c34.958,14.973,58.624,47.928,61.553,85.965h-53.062V103.44c0-4.418-3.582-8-8-8c-4.418,0-8,3.582-8,8v51.333h-45.59
		l-12.119-24.542c-1.348-2.729-4.128-4.458-7.173-4.458h-43.68c-2.766,0-5.335,1.429-6.795,3.777
		c-1.46,2.349-1.602,5.285-0.378,7.765l8.621,17.458H8c-4.418,0-8,3.582-8,8c0,4.418,3.582,8,8,8h6.185l-8.621,17.458
		c-1.225,2.48-1.082,5.416,0.378,7.765c1.46,2.349,4.029,3.777,6.795,3.777h43.68c3.045,0,5.825-1.729,7.173-4.458l12.119-24.542
		h45.59v51.333c0,4.418,3.582,8,8,8c4.418,0,8-3.582,8-8v-51.333h53.063c-2.926,38.072-26.592,71.031-61.553,85.972
		c-3.996-18.614-20.579-32.61-40.37-32.61c-22.765,0-41.285,18.52-41.285,41.286c0,22.766,18.52,41.286,41.285,41.286
		c76.681,0,139.542-60.276,143.708-135.934h20.2c4.418,0,8-3.582,8-8C260.346,158.355,256.764,154.773,252.346,154.773z
		 M25.609,141.773h25.835l6.42,13H32.028L25.609,141.773z M51.444,183.773H25.609l6.419-13h25.836L51.444,183.773z M183.296,92.231
		c-14.77-19.821-35.813-34.821-59.252-42.236c-2.534-0.804-5.299-0.292-7.38,1.355c-2.083,1.649-3.211,4.225-3.011,6.874
		c0.048,0.624,0.071,1.264,0.071,1.902c0,13.942-11.344,25.286-25.287,25.286c-13.942,0-25.285-11.344-25.285-25.286
		s11.343-25.286,25.285-25.286c67.855,0,123.531,53.103,127.676,119.933h-9.727C204.88,132.087,196.987,110.606,183.296,92.231z
		 M88.438,290.707c-13.942,0-25.285-11.344-25.285-25.286c0-13.942,11.343-25.286,25.285-25.286
		c13.943,0,25.287,11.344,25.287,25.286c0,0.635-0.023,1.275-0.07,1.904c-0.109,1.469,0.189,2.941,0.862,4.251
		c1.781,3.47,5.806,5.148,9.522,3.976c23.799-7.506,44.296-22.104,59.275-42.214c13.683-18.369,21.568-39.858,23.073-62.564h9.726
		C211.97,237.602,156.293,290.707,88.438,290.707z"/>
</g>
<g>
</g>
<g>
</g>
<g>
</g>
<g>
</g>
<g>
</g>
<g>
</g>
<g>
</g>
<g>
</g>
<g>
</g>
<g>
</g>
<g>
</g>
<g>
</g>
<g>
</g>
<g>
</g>
<g>
</g>
</svg>
